{
  "accessors": [
    {
      "bufferView": 2,
      "componentType": 5126,
      "count": 20731,
      "max": [
        57.58590316772461,
        504.03338623046875,
        21.575864791870117
      ],
      "min": [
        -40.225337982177734,
        -460.83905029296875,
        -30.596755981445312
      ],
      "type": "VEC3"
    },
    {
      "bufferView": 2,
      "byteOffset": 248772,
      "componentType": 5126,
      "count": 20731,
      "max": [
        0.9999982714653015,
        0.9999825358390808,
        0.9999996423721313
      ],
      "min": [
        -0.9999995231628418,
        -0.9999970197677612,
        -0.9999996423721313
      ],
      "type": "VEC3"
    },
    {
      "bufferView": 1,
      "componentType": 5126,
      "count": 20731,
      "max": [
        0.9978449940681458,
        0.9978690147399902
      ],
      "min": [
        0.00202700006775558,
        0.0020000000949949026
      ],
      "type": "VEC2"
    },
    {
      "bufferView": 0,
      "componentType": 5125,
      "count": 62730,
      "type": "SCALAR"
    }
  ],
  "asset": {
    "extras": {
      "author": "sunayama studio (https://sketchfab.com/tsnym)",
      "license": "CC-BY-4.0 (http://creativecommons.org/licenses/by/4.0/)",
      "source": "https://sketchfab.com/3d-models/b2-x-st-windowsill-a-1-80391d7a78434376b924610805e5a793",
      "title": "b2_x_st_windowsill_a-1"
    },
    "generator": "Sketchfab-12.67.0",
    "version": "2.0"
  },
  "bufferViews": [
    {
      "buffer": 0,
      "byteLength": 250920,
      "name": "floatBufferViews",
      "target": 34963
    },
    {
      "buffer": 0,
      "byteLength": 165848,
      "byteOffset": 250920,
      "byteStride": 8,
      "name": "floatBufferViews",
      "target": 34962
    },
    {
      "buffer": 0,
      "byteLength": 497544,
      "byteOffset": 416768,
      "byteStride": 12,
      "name": "floatBufferViews",
      "target": 34962
    }
  ],
  "buffers": [
    {
      "byteLength": 914312,
      "uri": "scene.bin"
    }
  ],
  "images": [
    {
      "uri": "textures/texture_baseColor.2k.avif",
      "mimeType": "image/avif"
    }
  ],
  "materials": [
    {
      "doubleSided": true,
      "name": "texture",
      "pbrMetallicRoughness": {
        "baseColorTexture": {
          "index": 0
        },
        "metallicFactor": 0
      }
    }
  ],
  "meshes": [
    {
      "name": "Object_0",
      "primitives": [
        {
          "attributes": {
            "NORMAL": 1,
            "POSITION": 0,
            "TEXCOORD_0": 2
          },
          "indices": 3,
          "material": 0,
          "mode": 4
        }
      ]
    }
  ],
  "nodes": [
    {
      "children": [
        1
      ],
      "matrix": [
        -1.3877787807814457e-15,
        1,
        0.00007772866956679003,
        0,
        -1,
        -3.8857805861880504e-16,
        1.1657341758564144e-15,
        0,
        1.6653345369377348e-16,
        -0.00007772866956679003,
        1,
        0,
        30.277999877929688,
        -13.191118240356442,
        -17.0879077911377,
        1
      ],
      "name": "Sketchfab_model"
    },
    {
      "children": [
        2
      ],
      "name": "B2_X_PI_windowsill_1_ax.obj.cleaner.materialmerger.gles"
    },
    {
      "mesh": 0,
      "name": "Object_2"
    }
  ],
  "samplers": [
    {
      "magFilter": 9729,
      "minFilter": 9987,
      "wrapS": 10497,
      "wrapT": 10497
    }
  ],
  "scene": 0,
  "scenes": [
    {
      "name": "Sketchfab_Scene",
      "nodes": [
        0
      ]
    }
  ],
  "textures": [
    {
      "sampler": 0,
      "source": 0,
      "extensions": {
        "EXT_texture_avif": {
          "source": 0
        }
      }
    }
  ],
  "extensionsUsed": [
    "EXT_texture_avif"
  ]
}
