{
  "accessors": [
    {
      "bufferView": 3,
      "componentType": 5126,
      "count": 726,
      "max": [
        0.052044257521629333,
        0.10715954005718231,
        0.05204426124691963
      ],
      "min": [
        -0.05204424634575844,
        0.00034856214188039303,
        -0.05204424634575844
      ],
      "type": "VEC3"
    },
    {
      "bufferView": 3,
      "byteOffset": 8712,
      "componentType": 5126,
      "count": 726,
      "max": [
        0.9999938607215881,
        1,
        0.9999938607215881
      ],
      "min": [
        -0.9999396800994873,
        -1,
        -0.9999396204948425
      ],
      "type": "VEC3"
    },
    {
      "bufferView": 4,
      "componentType": 5126,
      "count": 726,
      "max": [
        0.9999910593032837,
        0.6160958409309387,
        0.9999390244483948,
        1
      ],
      "min": [
        -0.9998649954795837,
        -0.6485671997070312,
        -0.9999922513961792,
        1
      ],
      "type": "VEC4"
    },
    {
      "bufferView": 2,
      "componentType": 5126,
      "count": 726,
      "max": [
        0.9880582690238953,
        0.9938124418258667
      ],
      "min": [
        0.004380046855658293,
        0.004517674446105957
      ],
      "type": "VEC2"
    },
    {
      "bufferView": 1,
      "componentType": 5125,
      "count": 1140,
      "type": "SCALAR"
    },
    {
      "bufferView": 5,
      "componentType": 5126,
      "count": 3,
      "max": [
        100,
        0,
        0,
        0,
        0,
        100,
        0,
        0,
        0,
        0,
        100,
        0,
        0,
        0,
        0,
        1
      ],
      "min": [
        1,
        0,
        0,
        0,
        0,
        1,
        0,
        0,
        0,
        0,
        1,
        0,
        0,
        0,
        0,
        1
      ],
      "type": "MAT4"
    },
    {
      "bufferView": 0,
      "componentType": 5123,
      "count": 726,
      "type": "VEC4"
    },
    {
      "bufferView": 4,
      "byteOffset": 11616,
      "componentType": 5126,
      "count": 726,
      "max": [
        1,
        0,
        0,
        0
      ],
      "min": [
        1,
        0,
        0,
        0
      ],
      "type": "VEC4"
    }
  ],
  "asset": {
    "extras": {
      "author": "3dmodelsst (https://sketchfab.com/3dmodelsst)",
      "license": "CC-BY-4.0 (http://creativecommons.org/licenses/by/4.0/)",
      "source": "https://sketchfab.com/3d-models/condensed-milk-1667f977023746f29c2c90b16248c31a",
      "title": "Condensed_milk"
    },
    "generator": "Sketchfab-16.2.0",
    "version": "2.0"
  },
  "bufferViews": [
    {
      "buffer": 0,
      "byteLength": 5808,
      "byteStride": 8,
      "name": "shortBufferViews",
      "target": 34962
    },
    {
      "buffer": 0,
      "byteLength": 4560,
      "byteOffset": 5808,
      "name": "floatBufferViews",
      "target": 34963
    },
    {
      "buffer": 0,
      "byteLength": 5808,
      "byteOffset": 10368,
      "byteStride": 8,
      "name": "floatBufferViews",
      "target": 34962
    },
    {
      "buffer": 0,
      "byteLength": 17424,
      "byteOffset": 16176,
      "byteStride": 12,
      "name": "floatBufferViews",
      "target": 34962
    },
    {
      "buffer": 0,
      "byteLength": 23232,
      "byteOffset": 33600,
      "byteStride": 16,
      "name": "floatBufferViews",
      "target": 34962
    },
    {
      "buffer": 0,
      "byteLength": 192,
      "byteOffset": 56832,
      "name": "floatBufferViews"
    }
  ],
  "buffers": [
    {
      "byteLength": 57024,
      "uri": "scene.bin"
    }
  ],
  "extensionsUsed": [
    "EXT_texture_avif"
  ],
  "images": [
    {
      "uri": "textures/condensed_milk_baseColor.512.avif",
      "mimeType": "image/avif"
    },
    {
      "uri": "textures/condensed_milk_metallicRoughness.512.avif",
      "mimeType": "image/avif"
    },
    {
      "uri": "textures/condensed_milk_normal.512.avif",
      "mimeType": "image/avif"
    }
  ],
  "materials": [
    {
      "doubleSided": true,
      "name": "itemitem_f_condensed_milk",
      "normalTexture": {
        "index": 2
      },
      "pbrMetallicRoughness": {
        "baseColorTexture": {
          "index": 0
        },
        "metallicRoughnessTexture": {
          "index": 1
        },
        "metallicFactor": 0,
        "roughnessFactor": 1
      }
    }
  ],
  "meshes": [
    {
      "name": "condensed_milk.ogf 00_item\\item_f_condensed_milk_0",
      "primitives": [
        {
          "attributes": {
            "JOINTS_0": 6,
            "NORMAL": 1,
            "POSITION": 0,
            "TANGENT": 2,
            "TEXCOORD_0": 3,
            "WEIGHTS_0": 7
          },
          "indices": 4,
          "material": 0,
          "mode": 4
        }
      ]
    }
  ],
  "nodes": [
    {
      "children": [
        1
      ],
      "matrix": [
        1,
        0,
        0,
        0,
        0,
        2.220446049250313e-16,
        -1,
        0,
        0,
        1,
        2.220446049250313e-16,
        0,
        0,
        0,
        0,
        1
      ],
      "name": "Sketchfab_model"
    },
    {
      "children": [
        2
      ],
      "matrix": [
        0.009999999776482582,
        0,
        0,
        0,
        0,
        0,
        0.009999999776482582,
        0,
        0,
        -0.009999999776482582,
        0,
        0,
        0,
        0,
        0,
        1
      ],
      "name": "07a40ae2b60c476b9eb7e39384ea876b.fbx"
    },
    {
      "children": [
        3
      ],
      "name": "RootNode"
    },
    {
      "children": [
        4
      ],
      "matrix": [
        100,
        0,
        0,
        0,
        0,
        -0.00001629206793918314,
        -99.99999999999868,
        0,
        0,
        99.99999999999868,
        -0.00001629206793918314,
        0,
        0,
        0,
        0,
        1
      ],
      "name": "condensed_milk.ogf"
    },
    {
      "children": [
        5,
        9,
        8
      ],
      "name": "Object_4"
    },
    {
      "children": [
        6
      ],
      "name": "_rootJoint"
    },
    {
      "children": [
        7
      ],
      "name": "bone_00",
      "rotation": [
        0.7071068286895752,
        0,
        0,
        0.7071067094802856
      ]
    },
    {
      "name": "bone_end_01",
      "translation": [
        0,
        0.019999999552965164,
        0
      ]
    },
    {
      "matrix": [
        100,
        0,
        0,
        0,
        0,
        6.123233995736766e-15,
        -100,
        0,
        0,
        100,
        6.123233995736766e-15,
        0,
        0,
        0,
        0,
        1
      ],
      "name": "Object_8"
    },
    {
      "mesh": 0,
      "name": "Object_9",
      "skin": 0
    }
  ],
  "samplers": [
    {
      "magFilter": 9729,
      "minFilter": 9987,
      "wrapS": 10497,
      "wrapT": 10497
    }
  ],
  "scene": 0,
  "scenes": [
    {
      "name": "Sketchfab_Scene",
      "nodes": [
        0
      ]
    }
  ],
  "skins": [
    {
      "inverseBindMatrices": 5,
      "joints": [
        5,
        6,
        7
      ],
      "skeleton": 5
    }
  ],
  "textures": [
    {
      "sampler": 0,
      "source": 0,
      "extensions": {
        "EXT_texture_avif": {
          "source": 0
        }
      }
    },
    {
      "sampler": 0,
      "source": 1,
      "extensions": {
        "EXT_texture_avif": {
          "source": 1
        }
      }
    },
    {
      "sampler": 0,
      "source": 2,
      "extensions": {
        "EXT_texture_avif": {
          "source": 2
        }
      }
    }
  ]
}
