{
  "accessors": [
    {
      "bufferView": 2,
      "componentType": 5126,
      "count": 48357,
      "max": [
        1.9999973773956299,
        2,
        1.9999332427978516
      ],
      "min": [
        -1.999996304512024,
        -1.9999765157699585,
        -1.9999938011169434
      ],
      "type": "VEC3"
    },
    {
      "bufferView": 2,
      "byteOffset": 580284,
      "componentType": 5126,
      "count": 48357,
      "max": [
        1,
        1,
        1
      ],
      "min": [
        -1,
        -1,
        -0.9993986487388611
      ],
      "type": "VEC3"
    },
    {
      "bufferView": 3,
      "componentType": 5126,
      "count": 48357,
      "max": [
        0.9998537302017212,
        0.9996839761734009,
        0.9984848499298096,
        1
      ],
      "min": [
        -0.9995267391204834,
        -0.9999998807907104,
        -1,
        1
      ],
      "type": "VEC4"
    },
    {
      "bufferView": 1,
      "componentType": 5126,
      "count": 48357,
      "max": [
        0.9999706149101257,
        0.9999999403953552
      ],
      "min": [
        0,
        0
      ],
      "type": "VEC2"
    },
    {
      "bufferView": 0,
      "componentType": 5125,
      "count": 48357,
      "type": "SCALAR"
    },
    {
      "bufferView": 2,
      "byteOffset": 1160568,
      "componentType": 5126,
      "count": 2198,
      "max": [
        1.7680009603500366,
        1.7679997682571411,
        1.7680020332336426
      ],
      "min": [
        -1.7680003643035889,
        -1.7679998874664307,
        -1.767999529838562
      ],
      "type": "VEC3"
    },
    {
      "bufferView": 2,
      "byteOffset": 1186944,
      "componentType": 5126,
      "count": 2198,
      "max": [
        1,
        1,
        1
      ],
      "min": [
        -1,
        -1,
        -1
      ],
      "type": "VEC3"
    },
    {
      "bufferView": 3,
      "byteOffset": 773712,
      "componentType": 5126,
      "count": 2198,
      "max": [
        0.7740499377250671,
        1,
        0.98201984167099,
        1
      ],
      "min": [
        -0.99998539686203,
        -1,
        -0.6369930505752563,
        1
      ],
      "type": "VEC4"
    },
    {
      "bufferView": 1,
      "byteOffset": 386856,
      "componentType": 5126,
      "count": 2198,
      "max": [
        0.9999999403953552,
        0.6847464442253113
      ],
      "min": [
        0,
        0
      ],
      "type": "VEC2"
    },
    {
      "bufferView": 0,
      "byteOffset": 193428,
      "componentType": 5125,
      "count": 11904,
      "type": "SCALAR"
    }
  ],
  "asset": {
    "extras": {
      "author": "RadTheZealot (https://sketchfab.com/RadTheZealot)",
      "license": "CC-BY-4.0 (http://creativecommons.org/licenses/by/4.0/)",
      "source": "https://sketchfab.com/3d-models/cyan-artifact-0077b6c8d2984a8cb79fa213d1a438b0",
      "title": "Cyan Artifact"
    },
    "generator": "Sketchfab-12.68.0",
    "version": "2.0"
  },
  "bufferViews": [
    {
      "buffer": 0,
      "byteLength": 241044,
      "name": "floatBufferViews",
      "target": 34963
    },
    {
      "buffer": 0,
      "byteLength": 404440,
      "byteOffset": 241044,
      "byteStride": 8,
      "name": "floatBufferViews",
      "target": 34962
    },
    {
      "buffer": 0,
      "byteLength": 1213320,
      "byteOffset": 645484,
      "byteStride": 12,
      "name": "floatBufferViews",
      "target": 34962
    },
    {
      "buffer": 0,
      "byteLength": 808880,
      "byteOffset": 1858804,
      "byteStride": 16,
      "name": "floatBufferViews",
      "target": 34962
    }
  ],
  "buffers": [
    {
      "byteLength": 2667684,
      "uri": "scene.bin"
    }
  ],
  "extensionsUsed": [
    "EXT_texture_avif"
  ],
  "images": [
    {
      "uri": "textures/Stone_diffuse.1k.avif",
      "mimeType": "image/avif"
    },
    {
      "uri": "textures/Stone_normal.1k.avif",
      "mimeType": "image/avif"
    },
    {
      "uri": "textures/Crystal_diffuse.1k.avif",
      "mimeType": "image/avif"
    },
    {
      "uri": "textures/Crystal_normal.1k.avif",
      "mimeType": "image/avif"
    }
  ],
  "materials": [
    {
      "doubleSided": true,
      "name": "Stone",
      "normalTexture": {
        "index": 1
      },
      "pbrMetallicRoughness": {
        "baseColorFactor": [
          1,
          1,
          1,
          1
        ],
        "baseColorTexture": {
          "index": 0
        },
        "metallicFactor": 0,
        "roughnessFactor": 0.5
      }
    },
    {
      "doubleSided": true,
      "emissiveFactor": [
        0,
        1,
        0.9406652057935943
      ],
      "name": "Crystal",
      "normalTexture": {
        "index": 3
      },
      "pbrMetallicRoughness": {
        "baseColorFactor": [
          1,
          1,
          1,
          1
        ],
        "baseColorTexture": {
          "index": 2
        },
        "metallicFactor": 0,
        "roughnessFactor": 0.5
      },
      "emissiveTexture": {
        "index": 2
      }
    }
  ],
  "meshes": [
    {
      "name": "Object_0",
      "primitives": [
        {
          "attributes": {
            "NORMAL": 1,
            "POSITION": 0,
            "TANGENT": 2,
            "TEXCOORD_0": 3
          },
          "indices": 4,
          "material": 0,
          "mode": 4
        }
      ]
    },
    {
      "name": "Object_1",
      "primitives": [
        {
          "attributes": {
            "NORMAL": 6,
            "POSITION": 5,
            "TANGENT": 7,
            "TEXCOORD_0": 8
          },
          "indices": 9,
          "material": 1,
          "mode": 4
        }
      ]
    }
  ],
  "nodes": [
    {
      "children": [
        1
      ],
      "matrix": [
        1,
        0,
        0,
        0,
        0,
        2.220446049250313e-16,
        -1,
        0,
        0,
        1,
        2.220446049250313e-16,
        0,
        0,
        0,
        0,
        1
      ],
      "name": "Sketchfab_model"
    },
    {
      "children": [
        2
      ],
      "name": "root"
    },
    {
      "children": [
        3
      ],
      "matrix": [
        1,
        0,
        0,
        0,
        0,
        2.220446049250313e-16,
        1,
        0,
        0,
        -1,
        2.220446049250313e-16,
        0,
        0,
        0,
        0,
        1
      ],
      "name": "GLTF_SceneRootNode"
    },
    {
      "children": [
        4,
        5
      ],
      "name": "Rock_2"
    },
    {
      "mesh": 0,
      "name": "Object_4"
    },
    {
      "mesh": 1,
      "name": "Object_5"
    }
  ],
  "samplers": [
    {
      "magFilter": 9729,
      "minFilter": 9987,
      "wrapS": 10497,
      "wrapT": 10497
    }
  ],
  "scene": 0,
  "scenes": [
    {
      "name": "Sketchfab_Scene",
      "nodes": [
        0
      ]
    }
  ],
  "textures": [
    {
      "sampler": 0,
      "source": 0,
      "extensions": {
        "EXT_texture_avif": {
          "source": 0
        }
      }
    },
    {
      "sampler": 0,
      "source": 1,
      "extensions": {
        "EXT_texture_avif": {
          "source": 1
        }
      }
    },
    {
      "sampler": 0,
      "source": 2,
      "extensions": {
        "EXT_texture_avif": {
          "source": 2
        }
      }
    },
    {
      "sampler": 0,
      "source": 3,
      "extensions": {
        "EXT_texture_avif": {
          "source": 3
        }
      }
    }
  ]
}
