{
  "accessors": [
    {
      "bufferView": 2,
      "componentType": 5126,
      "count": 107,
      "max": [
        39.57749557495117,
        60.01076126098633,
        0.7914009094238281
      ],
      "min": [
        -38.95151138305664,
        -60.423099517822266,
        0
      ],
      "type": "VEC3"
    },
    {
      "bufferView": 2,
      "byteOffset": 1284,
      "componentType": 5126,
      "count": 107,
      "max": [
        0.07200013846158981,
        0.0472407266497612,
        1
      ],
      "min": [
        -0.055685486644506454,
        -0.1984075903892517,
        0.9801195859909058
      ],
      "type": "VEC3"
    },
    {
      "bufferView": 3,
      "componentType": 5126,
      "count": 107,
      "max": [
        1,
        0.28391146659851074,
        0.05562688782811165,
        -1
      ],
      "min": [
        0.9586654901504517,
        -0.14859257638454437,
        -0.07200507074594498,
        -1
      ],
      "type": "VEC4"
    },
    {
      "bufferView": 1,
      "componentType": 5126,
      "count": 107,
      "max": [
        1,
        1
      ],
      "min": [
        0,
        0
      ],
      "type": "VEC2"
    },
    {
      "bufferView": 1,
      "byteOffset": 856,
      "componentType": 5126,
      "count": 107,
      "max": [
        1,
        1
      ],
      "min": [
        0,
        0
      ],
      "type": "VEC2"
    },
    {
      "bufferView": 1,
      "byteOffset": 1712,
      "componentType": 5126,
      "count": 107,
      "max": [
        1,
        1
      ],
      "min": [
        0,
        0
      ],
      "type": "VEC2"
    },
    {
      "bufferView": 0,
      "componentType": 5125,
      "count": 531,
      "type": "SCALAR"
    }
  ],
  "asset": {
    "extras": {
      "author": "maherart (https://sketchfab.com/maherart)",
      "license": "CC-BY-4.0 (http://creativecommons.org/licenses/by/4.0/)",
      "source": "https://sketchfab.com/3d-models/carpet-9808bd595be848b59136045897ddf1f9",
      "title": "Carpet"
    },
    "generator": "Sketchfab-16.59.0",
    "version": "2.0"
  },
  "bufferViews": [
    {
      "buffer": 0,
      "byteLength": 2124,
      "name": "floatBufferViews",
      "target": 34963
    },
    {
      "buffer": 0,
      "byteLength": 2568,
      "byteOffset": 2124,
      "byteStride": 8,
      "name": "floatBufferViews",
      "target": 34962
    },
    {
      "buffer": 0,
      "byteLength": 2568,
      "byteOffset": 4692,
      "byteStride": 12,
      "name": "floatBufferViews",
      "target": 34962
    },
    {
      "buffer": 0,
      "byteLength": 1712,
      "byteOffset": 7260,
      "byteStride": 16,
      "name": "floatBufferViews",
      "target": 34962
    }
  ],
  "buffers": [
    {
      "byteLength": 8972,
      "uri": "scene.bin"
    }
  ],
  "extensionsUsed": [
    "EXT_texture_avif"
  ],
  "images": [
    {
      "uri": "textures/Material__38_diffuse.1k.avif",
      "mimeType": "image/avif"
    },
    {
      "uri": "textures/Material__38_normal.1k.avif",
      "mimeType": "image/avif"
    }
  ],
  "materials": [
    {
      "name": "Material__38",
      "normalTexture": {
        "index": 1,
        "scale": 0.8030500664382977
      },
      "pbrMetallicRoughness": {
        "baseColorTexture": {
          "index": 0
        },
        "metallicFactor": 0,
        "roughnessFactor": 0.9
      }
    }
  ],
  "meshes": [
    {
      "name": "Object_0",
      "primitives": [
        {
          "attributes": {
            "NORMAL": 1,
            "POSITION": 0,
            "TANGENT": 2,
            "TEXCOORD_0": 3,
            "TEXCOORD_1": 4,
            "TEXCOORD_2": 5
          },
          "indices": 6,
          "material": 0,
          "mode": 4
        }
      ]
    }
  ],
  "nodes": [
    {
      "children": [
        1
      ],
      "matrix": [
        1,
        0,
        0,
        0,
        0,
        2.220446049250313e-16,
        -1,
        0,
        0,
        1,
        2.220446049250313e-16,
        0,
        0,
        0,
        0,
        1
      ],
      "name": "Sketchfab_model"
    },
    {
      "children": [
        2
      ],
      "name": "root"
    },
    {
      "children": [
        3
      ],
      "matrix": [
        1,
        0,
        0,
        0,
        0,
        2.220446049250313e-16,
        1,
        0,
        0,
        -1,
        2.220446049250313e-16,
        0,
        0,
        0,
        0,
        1
      ],
      "name": "GLTF_SceneRootNode"
    },
    {
      "children": [
        4
      ],
      "matrix": [
        1,
        0,
        0,
        0,
        0,
        0,
        -1,
        0,
        0,
        1,
        0,
        0,
        0.2793770432472229,
        0,
        -0.06649686396121979,
        1
      ],
      "name": "_1"
    },
    {
      "children": [
        5
      ],
      "matrix": [
        0.02539999969303608,
        0,
        0,
        0,
        0,
        0.02539999969303608,
        0,
        0,
        0,
        0,
        0.02539999969303608,
        0,
        0,
        0,
        0,
        1
      ],
      "name": "Plane001_0"
    },
    {
      "mesh": 0,
      "name": "Object_5"
    }
  ],
  "samplers": [
    {
      "magFilter": 9729,
      "minFilter": 9729,
      "wrapS": 10497,
      "wrapT": 10497
    },
    {
      "magFilter": 9729,
      "minFilter": 9987,
      "wrapS": 10497,
      "wrapT": 10497
    }
  ],
  "scene": 0,
  "scenes": [
    {
      "name": "Sketchfab_Scene",
      "nodes": [
        0
      ]
    }
  ],
  "textures": [
    {
      "sampler": 0,
      "source": 0,
      "extensions": {
        "EXT_texture_avif": {
          "source": 0
        }
      }
    },
    {
      "sampler": 0,
      "source": 1,
      "extensions": {
        "EXT_texture_avif": {
          "source": 1
        }
      }
    }
  ]
}
