{
  "accessors": [
    {
      "bufferView": 2,
      "componentType": 5126,
      "count": 1062,
      "max": [
        212.5,
        262.1999816894531,
        100.64993286132812
      ],
      "min": [
        -212.5,
        -0.000008821487426757812,
        -100.61392211914062
      ],
      "type": "VEC3"
    },
    {
      "bufferView": 2,
      "byteOffset": 12744,
      "componentType": 5126,
      "count": 1062,
      "max": [
        1,
        0.9999963045120239,
        1
      ],
      "min": [
        -1,
        -1,
        -1
      ],
      "type": "VEC3"
    },
    {
      "bufferView": 1,
      "componentType": 5126,
      "count": 1062,
      "max": [
        1.97945237159729,
        0.9929243326187134
      ],
      "min": [
        0.02054774761199951,
        0.007075667381286621
      ],
      "type": "VEC2"
    },
    {
      "bufferView": 0,
      "componentType": 5125,
      "count": 4362,
      "type": "SCALAR"
    }
  ],
  "asset": {
    "extras": {
      "author": "vlmccoy (https://sketchfab.com/vlmccoy)",
      "license": "CC-BY-4.0 (http://creativecommons.org/licenses/by/4.0/)",
      "source": "https://sketchfab.com/3d-models/cabinet-79044ce3e2f047faacab02fde7504236",
      "title": "Cabinet"
    },
    "generator": "Sketchfab-0.8.0",
    "version": "2.0"
  },
  "bufferViews": [
    {
      "buffer": 0,
      "byteLength": 17448,
      "name": "floatBufferViews",
      "target": 34963
    },
    {
      "buffer": 0,
      "byteLength": 8496,
      "byteOffset": 17448,
      "byteStride": 8,
      "name": "floatBufferViews",
      "target": 34962
    },
    {
      "buffer": 0,
      "byteLength": 25488,
      "byteOffset": 25944,
      "byteStride": 12,
      "name": "floatBufferViews",
      "target": 34962
    }
  ],
  "buffers": [
    {
      "byteLength": 51432,
      "uri": "scene.bin"
    }
  ],
  "images": [
    {
      "uri": "textures/lambert1_baseColor.512.avif",
      "mimeType": "image/avif"
    },
    {
      "uri": "textures/lambert1_metallicRoughness.512.avif",
      "mimeType": "image/avif"
    }
  ],
  "materials": [
    {
      "doubleSided": true,
      "name": "lambert1",
      "pbrMetallicRoughness": {
        "baseColorTexture": {
          "index": 0
        },
        "metallicRoughnessTexture": {
          "index": 1
        }
      }
    }
  ],
  "meshes": [
    {
      "name": "Cabinet_lambert1_0",
      "primitives": [
        {
          "attributes": {
            "NORMAL": 1,
            "POSITION": 0,
            "TEXCOORD_0": 2
          },
          "indices": 3,
          "material": 0,
          "mode": 4
        }
      ]
    }
  ],
  "nodes": [
    {
      "children": [
        1
      ],
      "matrix": [
        1,
        0,
        0,
        0,
        0,
        2.220446049250313e-16,
        -1,
        0,
        0,
        1,
        2.220446049250313e-16,
        0,
        0,
        0,
        0,
        1
      ],
      "name": "Sketchfab_model"
    },
    {
      "children": [
        2
      ],
      "matrix": [
        0.009999999776482582,
        0,
        0,
        0,
        0,
        0,
        0.009999999776482582,
        0,
        0,
        -0.009999999776482582,
        0,
        0,
        0,
        0,
        0,
        1
      ],
      "name": "d3baa5a3658d4a6691e9cc3f64e2db3c.fbx"
    },
    {
      "children": [
        3
      ],
      "name": "RootNode"
    },
    {
      "children": [
        4
      ],
      "name": "Cabinet"
    },
    {
      "mesh": 0,
      "name": "Cabinet_lambert1_0"
    }
  ],
  "samplers": [
    {
      "magFilter": 9729,
      "minFilter": 9987,
      "wrapS": 10497,
      "wrapT": 10497
    }
  ],
  "scene": 0,
  "scenes": [
    {
      "name": "Sketchfab_Scene",
      "nodes": [
        0
      ]
    }
  ],
  "textures": [
    {
      "sampler": 0,
      "source": 0,
      "extensions": {
        "EXT_texture_avif": {
          "source": 0
        }
      }
    },
    {
      "sampler": 0,
      "source": 1,
      "extensions": {
        "EXT_texture_avif": {
          "source": 1
        }
      }
    }
  ],
  "extensionsUsed": [
    "EXT_texture_avif"
  ]
}
