{
  "accessors": [
    {
      "bufferView": 2,
      "componentType": 5126,
      "count": 3319,
      "max": [
        1.5480926036834717,
        0.29528939723968506,
        0.2972818911075592
      ],
      "min": [
        -0.3004854917526245,
        -0.29528939723968506,
        -0.2932846248149872
      ],
      "type": "VEC3"
    },
    {
      "bufferView": 2,
      "byteOffset": 39828,
      "componentType": 5126,
      "count": 3319,
      "max": [
        1,
        1,
        0.9999991655349731
      ],
      "min": [
        -1,
        -1,
        -0.9999524354934692
      ],
      "type": "VEC3"
    },
    {
      "bufferView": 3,
      "componentType": 5126,
      "count": 3319,
      "max": [
        0.9999834895133972,
        1,
        0.9999983310699463,
        1
      ],
      "min": [
        -0.9999871253967285,
        -1,
        -0.9999991059303284,
        1
      ],
      "type": "VEC4"
    },
    {
      "bufferView": 1,
      "componentType": 5126,
      "count": 3319,
      "max": [
        0.9027320146560669,
        0.9672038555145264
      ],
      "min": [
        0.030609935522079468,
        0.03279605507850647
      ],
      "type": "VEC2"
    },
    {
      "bufferView": 0,
      "componentType": 5125,
      "count": 11100,
      "type": "SCALAR"
    }
  ],
  "asset": {
    "extras": {
      "author": "Atalaya22 (https://sketchfab.com/atalaya22)",
      "license": "CC-BY-4.0 (http://creativecommons.org/licenses/by/4.0/)",
      "source": "https://sketchfab.com/3d-models/wooden-floor-lamp-4766a03aa796440598426f8d5e975fec",
      "title": "Wooden Floor Lamp"
    },
    "generator": "Sketchfab-16.82.0",
    "version": "2.0"
  },
  "bufferViews": [
    {
      "buffer": 0,
      "byteLength": 44400,
      "name": "floatBufferViews",
      "target": 34963
    },
    {
      "buffer": 0,
      "byteLength": 26552,
      "byteOffset": 44400,
      "byteStride": 8,
      "name": "floatBufferViews",
      "target": 34962
    },
    {
      "buffer": 0,
      "byteLength": 79656,
      "byteOffset": 70952,
      "byteStride": 12,
      "name": "floatBufferViews",
      "target": 34962
    },
    {
      "buffer": 0,
      "byteLength": 53104,
      "byteOffset": 150608,
      "byteStride": 16,
      "name": "floatBufferViews",
      "target": 34962
    }
  ],
  "buffers": [
    {
      "byteLength": 203712,
      "uri": "scene.bin"
    }
  ],
  "extensionsUsed": [
    "KHR_materials_specular",
    "EXT_texture_avif"
  ],
  "images": [
    {
      "uri": "textures/Lampara_baseColor.1k.avif",
      "mimeType": "image/avif"
    },
    {
      "uri": "textures/Lampara_metallicRoughness.1k.avif",
      "mimeType": "image/avif"
    },
    {
      "uri": "textures/Lampara_normal.1k.avif",
      "mimeType": "image/avif"
    },
    {
      "uri": "textures/Lampara_specularf0.1k.avif",
      "mimeType": "image/avif"
    }
  ],
  "materials": [
    {
      "doubleSided": true,
      "extensions": {
        "KHR_materials_specular": {
          "specularColorFactor": [
            1,
            1,
            1
          ],
          "specularFactor": 1,
          "specularTexture": {
            "index": 3
          }
        }
      },
      "name": "Lampara",
      "normalTexture": {
        "index": 2
      },
      "pbrMetallicRoughness": {
        "baseColorTexture": {
          "index": 0
        },
        "metallicRoughnessTexture": {
          "index": 1
        }
      }
    }
  ],
  "meshes": [
    {
      "name": "Lampara_Lampara_0",
      "primitives": [
        {
          "attributes": {
            "NORMAL": 1,
            "POSITION": 0,
            "TANGENT": 2,
            "TEXCOORD_0": 3
          },
          "indices": 4,
          "material": 0,
          "mode": 4
        }
      ]
    }
  ],
  "nodes": [
    {
      "children": [
        1
      ],
      "matrix": [
        1,
        0,
        0,
        0,
        0,
        2.220446049250313e-16,
        -1,
        0,
        0,
        1,
        2.220446049250313e-16,
        0,
        0,
        0,
        0,
        1
      ],
      "name": "Sketchfab_model"
    },
    {
      "children": [
        2
      ],
      "matrix": [
        0.009999999776482582,
        0,
        0,
        0,
        0,
        0,
        0.009999999776482582,
        0,
        0,
        -0.009999999776482582,
        0,
        0,
        0,
        0,
        0,
        1
      ],
      "name": "Lampara.fbx"
    },
    {
      "children": [
        3
      ],
      "name": "RootNode"
    },
    {
      "children": [
        4
      ],
      "matrix": [
        -0.000003942571967114131,
        -90.19553023981685,
        -0.8806217742886426,
        0,
        90.19982910156214,
        -0.000003875993287856235,
        -0.000006838403764635563,
        0,
        0.0000068002364922575306,
        -0.8806217742889381,
        90.19553023981668,
        0,
        0,
        139.5061492919922,
        0,
        1
      ],
      "name": "Lampara"
    },
    {
      "mesh": 0,
      "name": "Lampara_Lampara_0"
    }
  ],
  "samplers": [
    {
      "magFilter": 9729,
      "minFilter": 9987,
      "wrapS": 10497,
      "wrapT": 10497
    }
  ],
  "scene": 0,
  "scenes": [
    {
      "name": "Sketchfab_Scene",
      "nodes": [
        0
      ]
    }
  ],
  "textures": [
    {
      "sampler": 0,
      "source": 0,
      "extensions": {
        "EXT_texture_avif": {
          "source": 0
        }
      }
    },
    {
      "sampler": 0,
      "source": 1,
      "extensions": {
        "EXT_texture_avif": {
          "source": 1
        }
      }
    },
    {
      "sampler": 0,
      "source": 2,
      "extensions": {
        "EXT_texture_avif": {
          "source": 2
        }
      }
    },
    {
      "sampler": 0,
      "source": 3,
      "extensions": {
        "EXT_texture_avif": {
          "source": 3
        }
      }
    }
  ]
}
