{
  "accessors": [
    {
      "bufferView": 2,
      "componentType": 5126,
      "count": 132,
      "max": [
        0.2151271253824234,
        0.5395307540893555,
        0.016288498416543007
      ],
      "min": [
        -0.2151271253824234,
        -0.5395307540893555,
        -0.0004175212234258652
      ],
      "type": "VEC3"
    },
    {
      "bufferView": 2,
      "byteOffset": 1584,
      "componentType": 5126,
      "count": 132,
      "max": [
        0.9260870814323425,
        0.9260870814323425,
        0.9524706602096558
      ],
      "min": [
        -0.9260870814323425,
        -0.9260870814323425,
        -0.6784186363220215
      ],
      "type": "VEC3"
    },
    {
      "bufferView": 3,
      "componentType": 5126,
      "count": 132,
      "max": [
        0.9953386187553406,
        0.6715087294578552,
        0.930957019329071,
        1
      ],
      "min": [
        -0.9608884453773499,
        -0.9574436545372009,
        -0.9308957457542419,
        1
      ],
      "type": "VEC4"
    },
    {
      "bufferView": 1,
      "componentType": 5126,
      "count": 132,
      "max": [
        0.998046875,
        0.8780794143676758
      ],
      "min": [
        0.001953125,
        0.001953125
      ],
      "type": "VEC2"
    },
    {
      "bufferView": 0,
      "componentType": 5125,
      "count": 468,
      "type": "SCALAR"
    },
    {
      "bufferView": 2,
      "byteOffset": 3168,
      "componentType": 5126,
      "count": 16,
      "max": [
        1.0000001192092896,
        84.73046875,
        1.0000001192092896
      ],
      "min": [
        -0.9382938742637634,
        -1,
        -1.0000001192092896
      ],
      "type": "VEC3"
    },
    {
      "bufferView": 2,
      "byteOffset": 3360,
      "componentType": 5126,
      "count": 16,
      "max": [
        0.7071067690849304,
        1,
        0
      ],
      "min": [
        0,
        -1,
        0
      ],
      "type": "VEC3"
    },
    {
      "bufferView": 3,
      "byteOffset": 2112,
      "componentType": 5126,
      "count": 16,
      "max": [
        0,
        0,
        1,
        1
      ],
      "min": [
        0,
        0,
        -1,
        1
      ],
      "type": "VEC4"
    },
    {
      "bufferView": 1,
      "byteOffset": 1056,
      "componentType": 5126,
      "count": 16,
      "max": [
        0.8943169713020325,
        0.8653420209884644
      ],
      "min": [
        0.24730496108531952,
        0.3945995271205902
      ],
      "type": "VEC2"
    },
    {
      "bufferView": 0,
      "byteOffset": 1872,
      "componentType": 5125,
      "count": 36,
      "type": "SCALAR"
    },
    {
      "bufferView": 2,
      "byteOffset": 3552,
      "componentType": 5126,
      "count": 36,
      "max": [
        1,
        231.15713500976562,
        1
      ],
      "min": [
        -0.9210881590843201,
        -1,
        -1.0000001192092896
      ],
      "type": "VEC3"
    },
    {
      "bufferView": 2,
      "byteOffset": 3984,
      "componentType": 5126,
      "count": 36,
      "max": [
        1,
        1,
        1
      ],
      "min": [
        -1,
        -1,
        -1
      ],
      "type": "VEC3"
    },
    {
      "bufferView": 3,
      "byteOffset": 2368,
      "componentType": 5126,
      "count": 36,
      "max": [
        0,
        1,
        0,
        1
      ],
      "min": [
        -1,
        -1,
        -1,
        -1
      ],
      "type": "VEC4"
    },
    {
      "bufferView": 1,
      "byteOffset": 1184,
      "componentType": 5126,
      "count": 36,
      "max": [
        0.9763815999031067,
        0.9627866148948669
      ],
      "min": [
        0.001953125,
        0.001953125
      ],
      "type": "VEC2"
    },
    {
      "bufferView": 0,
      "byteOffset": 2016,
      "componentType": 5125,
      "count": 54,
      "type": "SCALAR"
    },
    {
      "bufferView": 2,
      "byteOffset": 4416,
      "componentType": 5126,
      "count": 64,
      "max": [
        1.0000020265579224,
        84.0420913696289,
        14.556899070739746
      ],
      "min": [
        -32.01824951171875,
        -1.0000039339065552,
        -1
      ],
      "type": "VEC3"
    },
    {
      "bufferView": 2,
      "byteOffset": 5184,
      "componentType": 5126,
      "count": 64,
      "max": [
        0.9351677894592285,
        0.9416155219078064,
        0.7071112394332886
      ],
      "min": [
        -0.9351677894592285,
        -0.9416155219078064,
        0
      ],
      "type": "VEC3"
    },
    {
      "bufferView": 3,
      "byteOffset": 2944,
      "componentType": 5126,
      "count": 64,
      "max": [
        0.9858881831169128,
        1,
        0.0003710207820404321,
        1
      ],
      "min": [
        -0.985906720161438,
        -1,
        -0.00037068265373818576,
        1
      ],
      "type": "VEC4"
    },
    {
      "bufferView": 1,
      "byteOffset": 1472,
      "componentType": 5126,
      "count": 64,
      "max": [
        0.9823927879333496,
        0.8493488430976868
      ],
      "min": [
        0.1571757197380066,
        0.15217430889606476
      ],
      "type": "VEC2"
    },
    {
      "bufferView": 0,
      "byteOffset": 2232,
      "componentType": 5125,
      "count": 144,
      "type": "SCALAR"
    },
    {
      "bufferView": 2,
      "byteOffset": 5952,
      "componentType": 5126,
      "count": 20,
      "max": [
        1,
        80.33150482177734,
        14.556899070739746
      ],
      "min": [
        -1.0000038146972656,
        -1,
        -1
      ],
      "type": "VEC3"
    },
    {
      "bufferView": 2,
      "byteOffset": 6192,
      "componentType": 5126,
      "count": 20,
      "max": [
        0.7071067690849304,
        0.7071067690849304,
        0
      ],
      "min": [
        -0.7071067690849304,
        -0.7071067690849304,
        0
      ],
      "type": "VEC3"
    },
    {
      "bufferView": 3,
      "byteOffset": 3968,
      "componentType": 5126,
      "count": 20,
      "max": [
        0.7071068286895752,
        0.7071068286895752,
        0,
        1
      ],
      "min": [
        -0.7071068286895752,
        -0.7071068286895752,
        0,
        1
      ],
      "type": "VEC4"
    },
    {
      "bufferView": 1,
      "byteOffset": 1984,
      "componentType": 5126,
      "count": 20,
      "max": [
        0.867928147315979,
        0.8493473529815674
      ],
      "min": [
        0.8331450819969177,
        0.7036768198013306
      ],
      "type": "VEC2"
    },
    {
      "bufferView": 0,
      "byteOffset": 2808,
      "componentType": 5125,
      "count": 48,
      "type": "SCALAR"
    },
    {
      "bufferView": 2,
      "byteOffset": 6432,
      "componentType": 5126,
      "count": 32,
      "max": [
        5.594272136688232,
        1,
        1
      ],
      "min": [
        -1.0103622674942017,
        -1.00001060962677,
        -1
      ],
      "type": "VEC3"
    },
    {
      "bufferView": 2,
      "byteOffset": 6816,
      "componentType": 5126,
      "count": 32,
      "max": [
        0.5773502588272095,
        0.5773502588272095,
        0.5773502588272095
      ],
      "min": [
        -0.5773502588272095,
        -0.5773502588272095,
        -0.5773502588272095
      ],
      "type": "VEC3"
    },
    {
      "bufferView": 3,
      "byteOffset": 4288,
      "componentType": 5126,
      "count": 32,
      "max": [
        0.8164966702461243,
        0.8164966702461243,
        0.4082501232624054,
        1
      ],
      "min": [
        -0.8164966702461243,
        -0.8164966702461243,
        -0.4082501232624054,
        1
      ],
      "type": "VEC4"
    },
    {
      "bufferView": 1,
      "byteOffset": 2144,
      "componentType": 5126,
      "count": 32,
      "max": [
        0.9918577075004578,
        0.9330388307571411
      ],
      "min": [
        0.001953125,
        0.4113452732563019
      ],
      "type": "VEC2"
    },
    {
      "bufferView": 0,
      "byteOffset": 3000,
      "componentType": 5125,
      "count": 72,
      "type": "SCALAR"
    },
    {
      "bufferView": 2,
      "byteOffset": 7200,
      "componentType": 5126,
      "count": 132,
      "max": [
        0.2151271253824234,
        0.5395307540893555,
        0.016288498416543007
      ],
      "min": [
        -0.2151271253824234,
        -0.5395307540893555,
        -0.0004175212234258652
      ],
      "type": "VEC3"
    },
    {
      "bufferView": 2,
      "byteOffset": 8784,
      "componentType": 5126,
      "count": 132,
      "max": [
        0.9260870814323425,
        0.9260870814323425,
        0.9524706602096558
      ],
      "min": [
        -0.9260870814323425,
        -0.9260870814323425,
        -0.6784186363220215
      ],
      "type": "VEC3"
    },
    {
      "bufferView": 3,
      "byteOffset": 4800,
      "componentType": 5126,
      "count": 132,
      "max": [
        0.9953386783599854,
        0.6681854724884033,
        0.9304786324501038,
        1
      ],
      "min": [
        -0.9557912349700928,
        -0.957423985004425,
        -0.9304789304733276,
        1
      ],
      "type": "VEC4"
    },
    {
      "bufferView": 1,
      "byteOffset": 2400,
      "componentType": 5126,
      "count": 132,
      "max": [
        0.9621742367744446,
        0.9714215993881226
      ],
      "min": [
        0.1772044450044632,
        0.001953125
      ],
      "type": "VEC2"
    },
    {
      "bufferView": 0,
      "byteOffset": 3288,
      "componentType": 5125,
      "count": 468,
      "type": "SCALAR"
    },
    {
      "bufferView": 2,
      "byteOffset": 10368,
      "componentType": 5126,
      "count": 8,
      "max": [
        1,
        1,
        1
      ],
      "min": [
        -0.9382937550544739,
        -1,
        -1
      ],
      "type": "VEC3"
    },
    {
      "bufferView": 2,
      "byteOffset": 10464,
      "componentType": 5126,
      "count": 8,
      "max": [
        0.7071067690849304,
        1,
        0
      ],
      "min": [
        0,
        -1,
        0
      ],
      "type": "VEC3"
    },
    {
      "bufferView": 3,
      "byteOffset": 6912,
      "componentType": 5126,
      "count": 8,
      "max": [
        0,
        0,
        1,
        1
      ],
      "min": [
        0,
        0,
        1,
        1
      ],
      "type": "VEC4"
    },
    {
      "bufferView": 1,
      "byteOffset": 3456,
      "componentType": 5126,
      "count": 8,
      "max": [
        0.5464417338371277,
        0.9830344915390015
      ],
      "min": [
        0.4025275409221649,
        0.6778843998908997
      ],
      "type": "VEC2"
    },
    {
      "bufferView": 0,
      "byteOffset": 5160,
      "componentType": 5125,
      "count": 18,
      "type": "SCALAR"
    },
    {
      "bufferView": 2,
      "byteOffset": 10560,
      "componentType": 5126,
      "count": 136,
      "max": [
        0.949549674987793,
        28.877517700195312,
        0.39720970392227173
      ],
      "min": [
        -0.9495512247085571,
        -0.9495499134063721,
        -0.9038141369819641
      ],
      "type": "VEC3"
    },
    {
      "bufferView": 2,
      "byteOffset": 12192,
      "componentType": 5126,
      "count": 136,
      "max": [
        1,
        1,
        0.9565948843955994
      ],
      "min": [
        -1,
        -1,
        -0.6789947748184204
      ],
      "type": "VEC3"
    },
    {
      "bufferView": 3,
      "byteOffset": 7040,
      "componentType": 5126,
      "count": 136,
      "max": [
        0.9296792149543762,
        0.9371261596679688,
        0.9997164011001587,
        1
      ],
      "min": [
        -0.7147359848022461,
        -0.9373576641082764,
        -0.9997212886810303,
        1
      ],
      "type": "VEC4"
    },
    {
      "bufferView": 1,
      "byteOffset": 3520,
      "componentType": 5126,
      "count": 136,
      "max": [
        0.8956228494644165,
        0.3788120150566101
      ],
      "min": [
        0.8381522297859192,
        0.301775723695755
      ],
      "type": "VEC2"
    },
    {
      "bufferView": 0,
      "byteOffset": 5232,
      "componentType": 5125,
      "count": 516,
      "type": "SCALAR"
    },
    {
      "bufferView": 2,
      "byteOffset": 13824,
      "componentType": 5126,
      "count": 16,
      "max": [
        2.727079153060913,
        0.18310965597629547,
        1
      ],
      "min": [
        -2.6465811729431152,
        -1.0000030994415283,
        -1
      ],
      "type": "VEC3"
    },
    {
      "bufferView": 2,
      "byteOffset": 14016,
      "componentType": 5126,
      "count": 16,
      "max": [
        1,
        1,
        0
      ],
      "min": [
        -1,
        -1,
        0
      ],
      "type": "VEC3"
    },
    {
      "bufferView": 3,
      "byteOffset": 9216,
      "componentType": 5126,
      "count": 16,
      "max": [
        0,
        0,
        1,
        1
      ],
      "min": [
        0,
        0,
        1,
        1
      ],
      "type": "VEC4"
    },
    {
      "bufferView": 1,
      "byteOffset": 4608,
      "componentType": 5126,
      "count": 16,
      "max": [
        0.8292236328125,
        0.8037932515144348
      ],
      "min": [
        0.5928003787994385,
        0.001953125
      ],
      "type": "VEC2"
    },
    {
      "bufferView": 0,
      "byteOffset": 7296,
      "componentType": 5125,
      "count": 24,
      "type": "SCALAR"
    },
    {
      "bufferView": 2,
      "byteOffset": 14208,
      "componentType": 5126,
      "count": 80,
      "max": [
        1,
        50.381797790527344,
        1
      ],
      "min": [
        -17.43351173400879,
        -1,
        -0.594767689704895
      ],
      "type": "VEC3"
    },
    {
      "bufferView": 2,
      "byteOffset": 15168,
      "componentType": 5126,
      "count": 80,
      "max": [
        0.7255329489707947,
        0.7071067690849304,
        0
      ],
      "min": [
        -0.7255329489707947,
        -0.7071067690849304,
        -0.7814454436302185
      ],
      "type": "VEC3"
    },
    {
      "bufferView": 3,
      "byteOffset": 9472,
      "componentType": 5126,
      "count": 80,
      "max": [
        0.7071068286895752,
        0.9248631596565247,
        0.9993887543678284,
        1
      ],
      "min": [
        -0.7071068286895752,
        -0.9248631596565247,
        -0.9993887543678284,
        1
      ],
      "type": "VEC4"
    },
    {
      "bufferView": 1,
      "byteOffset": 4736,
      "componentType": 5126,
      "count": 80,
      "max": [
        0.8782818913459778,
        0.5192121863365173
      ],
      "min": [
        0.001953125,
        0.3129351735115051
      ],
      "type": "VEC2"
    },
    {
      "bufferView": 0,
      "byteOffset": 7392,
      "componentType": 5125,
      "count": 216,
      "type": "SCALAR"
    },
    {
      "bufferView": 2,
      "byteOffset": 16128,
      "componentType": 5126,
      "count": 32,
      "max": [
        1,
        1.0000001192092896,
        1
      ],
      "min": [
        -21.34404182434082,
        -1.0000001192092896,
        -1
      ],
      "type": "VEC3"
    },
    {
      "bufferView": 2,
      "byteOffset": 16512,
      "componentType": 5126,
      "count": 32,
      "max": [
        1,
        0,
        0
      ],
      "min": [
        -1,
        0,
        -0.7071067690849304
      ],
      "type": "VEC3"
    },
    {
      "bufferView": 3,
      "byteOffset": 10752,
      "componentType": 5126,
      "count": 32,
      "max": [
        0.7071068286895752,
        0,
        1,
        1
      ],
      "min": [
        -0.7071068286895752,
        0,
        -1,
        1
      ],
      "type": "VEC4"
    },
    {
      "bufferView": 1,
      "byteOffset": 5376,
      "componentType": 5126,
      "count": 32,
      "max": [
        0.9410226345062256,
        0.8961608409881592
      ],
      "min": [
        0.9032455682754517,
        0.15217430889606476
      ],
      "type": "VEC2"
    },
    {
      "bufferView": 0,
      "byteOffset": 8256,
      "componentType": 5125,
      "count": 84,
      "type": "SCALAR"
    },
    {
      "bufferView": 2,
      "byteOffset": 16896,
      "componentType": 5126,
      "count": 16,
      "max": [
        62.013160705566406,
        1,
        1
      ],
      "min": [
        -1,
        -1.000000238418579,
        -1
      ],
      "type": "VEC3"
    },
    {
      "bufferView": 2,
      "byteOffset": 17088,
      "componentType": 5126,
      "count": 16,
      "max": [
        1,
        0,
        0
      ],
      "min": [
        -1,
        0,
        -0.7071067690849304
      ],
      "type": "VEC3"
    },
    {
      "bufferView": 3,
      "byteOffset": 11264,
      "componentType": 5126,
      "count": 16,
      "max": [
        0,
        0,
        1,
        1
      ],
      "min": [
        -0.7071068286895752,
        0,
        -1,
        1
      ],
      "type": "VEC4"
    },
    {
      "bufferView": 1,
      "byteOffset": 5632,
      "componentType": 5126,
      "count": 16,
      "max": [
        0.8258574604988098,
        0.8179010152816772
      ],
      "min": [
        0.24730496108531952,
        0.42145293951034546
      ],
      "type": "VEC2"
    },
    {
      "bufferView": 0,
      "byteOffset": 8592,
      "componentType": 5125,
      "count": 36,
      "type": "SCALAR"
    }
  ],
  "asset": {
    "extras": {
      "author": "Skilletik (https://sketchfab.com/Skilletik)",
      "license": "CC-BY-4.0 (http://creativecommons.org/licenses/by/4.0/)",
      "source": "https://sketchfab.com/3d-models/soviet-old-table-9e1fc1a8f6f64995bcfab5e0ca17f6ea",
      "title": "Soviet Old Table"
    },
    "generator": "Sketchfab-15.49.0",
    "version": "2.0"
  },
  "bufferViews": [
    {
      "buffer": 0,
      "byteLength": 8736,
      "name": "floatBufferViews",
      "target": 34963
    },
    {
      "buffer": 0,
      "byteLength": 5760,
      "byteOffset": 8736,
      "byteStride": 8,
      "name": "floatBufferViews",
      "target": 34962
    },
    {
      "buffer": 0,
      "byteLength": 17280,
      "byteOffset": 14496,
      "byteStride": 12,
      "name": "floatBufferViews",
      "target": 34962
    },
    {
      "buffer": 0,
      "byteLength": 11520,
      "byteOffset": 31776,
      "byteStride": 16,
      "name": "floatBufferViews",
      "target": 34962
    }
  ],
  "buffers": [
    {
      "byteLength": 43296,
      "uri": "scene.bin"
    }
  ],
  "images": [
    {
      "uri": "textures/Scene_-_Root_baseColor.512.avif",
      "mimeType": "image/avif"
    },
    {
      "uri": "textures/Scene_-_Root_metallicRoughness.512.avif",
      "mimeType": "image/avif"
    },
    {
      "uri": "textures/Scene_-_Root_normal.512.avif",
      "mimeType": "image/avif"
    }
  ],
  "materials": [
    {
      "doubleSided": true,
      "name": "Scene_-_Root",
      "normalTexture": {
        "index": 2
      },
      "occlusionTexture": {
        "index": 1
      },
      "pbrMetallicRoughness": {
        "baseColorTexture": {
          "index": 0
        },
        "metallicRoughnessTexture": {
          "index": 1
        }
      }
    }
  ],
  "meshes": [
    {
      "name": "2_low__0",
      "primitives": [
        {
          "attributes": {
            "NORMAL": 1,
            "POSITION": 0,
            "TANGENT": 2,
            "TEXCOORD_0": 3
          },
          "indices": 4,
          "material": 0,
          "mode": 4
        }
      ]
    },
    {
      "name": "3_low__0",
      "primitives": [
        {
          "attributes": {
            "NORMAL": 6,
            "POSITION": 5,
            "TANGENT": 7,
            "TEXCOORD_0": 8
          },
          "indices": 9,
          "material": 0,
          "mode": 4
        }
      ]
    },
    {
      "name": "4_low__0",
      "primitives": [
        {
          "attributes": {
            "NORMAL": 11,
            "POSITION": 10,
            "TANGENT": 12,
            "TEXCOORD_0": 13
          },
          "indices": 14,
          "material": 0,
          "mode": 4
        }
      ]
    },
    {
      "name": "5_low__0",
      "primitives": [
        {
          "attributes": {
            "NORMAL": 16,
            "POSITION": 15,
            "TANGENT": 17,
            "TEXCOORD_0": 18
          },
          "indices": 19,
          "material": 0,
          "mode": 4
        }
      ]
    },
    {
      "name": "6_low__0",
      "primitives": [
        {
          "attributes": {
            "NORMAL": 21,
            "POSITION": 20,
            "TANGENT": 22,
            "TEXCOORD_0": 23
          },
          "indices": 24,
          "material": 0,
          "mode": 4
        }
      ]
    },
    {
      "name": "7_low__0",
      "primitives": [
        {
          "attributes": {
            "NORMAL": 26,
            "POSITION": 25,
            "TANGENT": 27,
            "TEXCOORD_0": 28
          },
          "indices": 29,
          "material": 0,
          "mode": 4
        }
      ]
    },
    {
      "name": "8_low__0",
      "primitives": [
        {
          "attributes": {
            "NORMAL": 31,
            "POSITION": 30,
            "TANGENT": 32,
            "TEXCOORD_0": 33
          },
          "indices": 34,
          "material": 0,
          "mode": 4
        }
      ]
    },
    {
      "name": "10_low__0",
      "primitives": [
        {
          "attributes": {
            "NORMAL": 36,
            "POSITION": 35,
            "TANGENT": 37,
            "TEXCOORD_0": 38
          },
          "indices": 39,
          "material": 0,
          "mode": 4
        }
      ]
    },
    {
      "name": "1_low__0",
      "primitives": [
        {
          "attributes": {
            "NORMAL": 41,
            "POSITION": 40,
            "TANGENT": 42,
            "TEXCOORD_0": 43
          },
          "indices": 44,
          "material": 0,
          "mode": 4
        }
      ]
    },
    {
      "name": "9_low__0",
      "primitives": [
        {
          "attributes": {
            "NORMAL": 46,
            "POSITION": 45,
            "TANGENT": 47,
            "TEXCOORD_0": 48
          },
          "indices": 49,
          "material": 0,
          "mode": 4
        }
      ]
    },
    {
      "name": "11_low__0",
      "primitives": [
        {
          "attributes": {
            "NORMAL": 51,
            "POSITION": 50,
            "TANGENT": 52,
            "TEXCOORD_0": 53
          },
          "indices": 54,
          "material": 0,
          "mode": 4
        }
      ]
    },
    {
      "name": "12_low__0",
      "primitives": [
        {
          "attributes": {
            "NORMAL": 56,
            "POSITION": 55,
            "TANGENT": 57,
            "TEXCOORD_0": 58
          },
          "indices": 59,
          "material": 0,
          "mode": 4
        }
      ]
    },
    {
      "name": "13_low__0",
      "primitives": [
        {
          "attributes": {
            "NORMAL": 61,
            "POSITION": 60,
            "TANGENT": 62,
            "TEXCOORD_0": 63
          },
          "indices": 64,
          "material": 0,
          "mode": 4
        }
      ]
    }
  ],
  "nodes": [
    {
      "children": [
        1
      ],
      "matrix": [
        1,
        0,
        0,
        0,
        0,
        2.220446049250313e-16,
        -1,
        0,
        0,
        1,
        2.220446049250313e-16,
        0,
        0,
        0,
        0,
        1
      ],
      "name": "Sketchfab_model"
    },
    {
      "children": [
        2
      ],
      "matrix": [
        0.009999999776482582,
        0,
        0,
        0,
        0,
        0,
        0.009999999776482582,
        0,
        0,
        -0.009999999776482582,
        0,
        0,
        0,
        0,
        0,
        1
      ],
      "name": "Table_100_low.fbx"
    },
    {
      "children": [
        3,
        5,
        7,
        9,
        11,
        13,
        15,
        17,
        19,
        21,
        23,
        25,
        27
      ],
      "name": "RootNode"
    },
    {
      "children": [
        4
      ],
      "matrix": [
        100,
        0,
        0,
        0,
        0,
        -0.00001629206793918314,
        -99.99999999999868,
        0,
        0,
        99.99999999999868,
        -0.00001629206793918314,
        0,
        0,
        0,
        0,
        1
      ],
      "name": "2_low"
    },
    {
      "mesh": 0,
      "name": "2_low__0"
    },
    {
      "children": [
        6
      ],
      "matrix": [
        20.205398559570312,
        0,
        0,
        0,
        0,
        -7.382070896182691e-8,
        -0.4531082808971345,
        0,
        0,
        18.993095397948967,
        -0.0000030943680059877533,
        0,
        -0.765430212020874,
        20.24188995361328,
        18.969482421875,
        1
      ],
      "name": "3_low"
    },
    {
      "mesh": 1,
      "name": "3_low__0"
    },
    {
      "children": [
        8
      ],
      "matrix": [
        18.683244705200195,
        0,
        0,
        0,
        0,
        -7.382070896182691e-8,
        -0.4531082808971345,
        0,
        0,
        18.993095397948967,
        -0.0000030943680059877533,
        0,
        -0.765430212020874,
        20.24188995361328,
        52.14305114746094,
        1
      ],
      "name": "4_low"
    },
    {
      "mesh": 2,
      "name": "4_low__0"
    },
    {
      "children": [
        10
      ],
      "matrix": [
        1.23883056640625,
        0,
        0,
        0,
        0,
        -2.0183111753027357e-7,
        -1.2388305664062336,
        0,
        0,
        2.4313526153564133,
        -3.9611761993497823e-7,
        0,
        19.21317481994629,
        3.8420281410217285,
        51.43753433227539,
        1
      ],
      "name": "5_low"
    },
    {
      "mesh": 3,
      "name": "5_low__0"
    },
    {
      "children": [
        12
      ],
      "matrix": [
        0.4788830280303955,
        0,
        0,
        0,
        0,
        -7.801994827592948e-8,
        -0.4788830280303892,
        0,
        0,
        2.4313526153564133,
        -3.9611761993497823e-7,
        0,
        19.964040756225586,
        3.8420281410217285,
        18.995256423950195,
        1
      ],
      "name": "6_low"
    },
    {
      "mesh": 4,
      "name": "6_low__0"
    },
    {
      "children": [
        14
      ],
      "matrix": [
        0.000002959754226527909,
        0,
        -15.201052665710161,
        0,
        -0.45310828089712596,
        -7.382070906243717e-8,
        -8.822343950231417e-8,
        0,
        -0.0000029864249173840947,
        18.330545425414797,
        -5.861086152547136e-13,
        0,
        20.168052673339844,
        20.112531661987305,
        34.84012985229492,
        1
      ],
      "name": "7_low"
    },
    {
      "mesh": 5,
      "name": "7_low__0"
    },
    {
      "children": [
        16
      ],
      "matrix": [
        100,
        0,
        0,
        0,
        0,
        -0.00001629206793918314,
        -99.99999999999868,
        0,
        0,
        135.7652587890607,
        -0.000022118968199721874,
        0,
        0,
        38.68289566040039,
        0,
        1
      ],
      "name": "8_low"
    },
    {
      "mesh": 6,
      "name": "8_low__0"
    },
    {
      "children": [
        18
      ],
      "matrix": [
        20.205398559570312,
        0,
        0,
        0,
        0,
        0.45310828089714006,
        1.9805992002231223e-8,
        0,
        0,
        -8.167091653977922e-7,
        18.68412780761717,
        0,
        -0.765430212020874,
        20.24188995361328,
        -0.13298951089382172,
        1
      ],
      "name": "10_low"
    },
    {
      "mesh": 7,
      "name": "10_low__0"
    },
    {
      "children": [
        20
      ],
      "matrix": [
        1.2321002264546947e-7,
        -1.6319662332534746,
        0,
        0,
        1.232100227360618e-7,
        9.059232437844006e-15,
        -1.6319662332534746,
        0,
        1.63196623325347,
        1.232100227360618e-7,
        1.2321002264546947e-7,
        0,
        22.039594650268555,
        20.10576057434082,
        22.65576171875,
        1
      ],
      "name": "1_low"
    },
    {
      "mesh": 8,
      "name": "1_low__0"
    },
    {
      "children": [
        22
      ],
      "matrix": [
        0.0000036377620482960817,
        0,
        -18.683244705199844,
        0,
        -0.45310828089712596,
        -7.382070906243717e-8,
        -8.822343950231417e-8,
        0,
        -0.000003094368009150739,
        18.99309539794897,
        -6.072932684075133e-13,
        0,
        -20.220701217651367,
        20.24188995361328,
        0.7519781589508057,
        1
      ],
      "name": "9_low"
    },
    {
      "mesh": 9,
      "name": "9_low__0"
    },
    {
      "children": [
        24
      ],
      "matrix": [
        2.020618438720703,
        0,
        0,
        0,
        0,
        -3.292005288280386e-7,
        -2.0206184387206765,
        0,
        0,
        6.244703292846597,
        -0.0000010173913030709878,
        0,
        16.602928161621094,
        -5.967668533325195,
        49.8908805847168,
        1
      ],
      "name": "11_low"
    },
    {
      "mesh": 10,
      "name": "11_low__0"
    },
    {
      "children": [
        26
      ],
      "matrix": [
        1.6348425149917603,
        0,
        0,
        0,
        0,
        -0.000007826759928080602,
        -48.04030990600523,
        0,
        0,
        1.6348425149917387,
        -2.6634965324110794e-7,
        0,
        16.62965202331543,
        -1.5819156169891357,
        0,
        1
      ],
      "name": "12_low"
    },
    {
      "mesh": 11,
      "name": "12_low__0"
    },
    {
      "children": [
        28
      ],
      "matrix": [
        3.183155897071048e-7,
        0,
        -1.6348425149917294,
        0,
        -14.82952976226759,
        -0.0000024160370672229146,
        -0.0000028874160481878777,
        0,
        -2.6634965351336386e-7,
        1.634842514991739,
        -5.227314629126256e-14,
        0,
        -0.1711362898349762,
        -1.516566276550293,
        49.87345504760742,
        1
      ],
      "name": "13_low"
    },
    {
      "mesh": 12,
      "name": "13_low__0"
    }
  ],
  "samplers": [
    {
      "magFilter": 9729,
      "minFilter": 9987,
      "wrapS": 10497,
      "wrapT": 10497
    }
  ],
  "scene": 0,
  "scenes": [
    {
      "name": "Sketchfab_Scene",
      "nodes": [
        0
      ]
    }
  ],
  "textures": [
    {
      "sampler": 0,
      "source": 0,
      "extensions": {
        "EXT_texture_avif": {
          "source": 0
        }
      }
    },
    {
      "sampler": 0,
      "source": 1,
      "extensions": {
        "EXT_texture_avif": {
          "source": 1
        }
      }
    },
    {
      "sampler": 0,
      "source": 2,
      "extensions": {
        "EXT_texture_avif": {
          "source": 2
        }
      }
    }
  ],
  "extensionsUsed": [
    "EXT_texture_avif"
  ]
}
