{
  "accessors": [
    {
      "bufferView": 2,
      "componentType": 5126,
      "count": 29387,
      "max": [
        0.19348356127738953,
        0.2298019528388977,
        0.19640932977199554
      ],
      "min": [
        -0.19348356127738953,
        -0.2298019528388977,
        -0.19640932977199554
      ],
      "type": "VEC3"
    },
    {
      "bufferView": 2,
      "byteOffset": 352644,
      "componentType": 5126,
      "count": 29387,
      "max": [
        0.9999942183494568,
        0.9999430775642395,
        0.9999995231628418
      ],
      "min": [
        -0.999993622303009,
        -0.9996256828308105,
        -0.9999722838401794
      ],
      "type": "VEC3"
    },
    {
      "bufferView": 1,
      "componentType": 5126,
      "count": 29387,
      "max": [
        0.9960885643959045,
        0.9999591708183289
      ],
      "min": [
        0.00006779986870242283,
        0.00006420275167329237
      ],
      "type": "VEC2"
    },
    {
      "bufferView": 1,
      "byteOffset": 235096,
      "componentType": 5126,
      "count": 29387,
      "max": [
        0.9960885643959045,
        0.9999591708183289
      ],
      "min": [
        0.00006779986870242283,
        0.00006420275167329237
      ],
      "type": "VEC2"
    },
    {
      "bufferView": 1,
      "byteOffset": 470192,
      "componentType": 5126,
      "count": 29387,
      "max": [
        0.9960885643959045,
        0.9999591708183289
      ],
      "min": [
        0.00006779986870242283,
        0.00006420275167329237
      ],
      "type": "VEC2"
    },
    {
      "bufferView": 0,
      "componentType": 5125,
      "count": 149997,
      "type": "SCALAR"
    }
  ],
  "asset": {
    "extras": {
      "author": "cryptoisaac (https://sketchfab.com/cryptoisaac)",
      "license": "CC-BY-NC-SA-4.0 (http://creativecommons.org/licenses/by-nc-sa/4.0/)",
      "source": "https://sketchfab.com/3d-models/backpack-81f39e334d4b4e8c84f5080ef5892f72",
      "title": "Backpack"
    },
    "generator": "Sketchfab-14.35.0",
    "version": "2.0"
  },
  "bufferViews": [
    {
      "buffer": 0,
      "byteLength": 599988,
      "name": "floatBufferViews",
      "target": 34963
    },
    {
      "buffer": 0,
      "byteLength": 705288,
      "byteOffset": 599988,
      "byteStride": 8,
      "name": "floatBufferViews",
      "target": 34962
    },
    {
      "buffer": 0,
      "byteLength": 705288,
      "byteOffset": 1305276,
      "byteStride": 12,
      "name": "floatBufferViews",
      "target": 34962
    }
  ],
  "buffers": [
    {
      "byteLength": 2010564,
      "uri": "scene.bin"
    }
  ],
  "extensionsUsed": [
    "KHR_materials_unlit",
    "EXT_texture_avif"
  ],
  "images": [
    {
      "uri": "textures/material_0_baseColor.512.avif",
      "mimeType": "image/avif"
    }
  ],
  "materials": [
    {
      "extensions": {
        "KHR_materials_unlit": {}
      },
      "name": "material_0",
      "pbrMetallicRoughness": {
        "baseColorTexture": {
          "index": 0
        },
        "metallicFactor": 0
      }
    }
  ],
  "meshes": [
    {
      "name": "Object_0",
      "primitives": [
        {
          "attributes": {
            "NORMAL": 1,
            "POSITION": 0,
            "TEXCOORD_0": 2,
            "TEXCOORD_1": 3,
            "TEXCOORD_2": 4
          },
          "indices": 5,
          "material": 0,
          "mode": 4
        }
      ]
    }
  ],
  "nodes": [
    {
      "children": [
        1
      ],
      "matrix": [
        1,
        0,
        0,
        0,
        0,
        2.220446049250313e-16,
        -1,
        0,
        0,
        1,
        2.220446049250313e-16,
        0,
        0,
        0,
        0,
        1
      ],
      "name": "Sketchfab_model"
    },
    {
      "children": [
        2
      ],
      "name": "root"
    },
    {
      "children": [
        3
      ],
      "matrix": [
        1,
        0,
        0,
        0,
        0,
        2.220446049250313e-16,
        1,
        0,
        0,
        -1,
        2.220446049250313e-16,
        0,
        0,
        0,
        0,
        1
      ],
      "name": "GLTF_SceneRootNode"
    },
    {
      "children": [
        4
      ],
      "name": "_0"
    },
    {
      "mesh": 0,
      "name": "Object_4"
    }
  ],
  "samplers": [
    {
      "magFilter": 9729,
      "minFilter": 9987,
      "wrapS": 10497,
      "wrapT": 10497
    }
  ],
  "scene": 0,
  "scenes": [
    {
      "name": "Sketchfab_Scene",
      "nodes": [
        0
      ]
    }
  ],
  "textures": [
    {
      "sampler": 0,
      "source": 0,
      "extensions": {
        "EXT_texture_avif": {
          "source": 0
        }
      }
    }
  ]
}
