{
  "accessors": [
    {
      "bufferView": 2,
      "componentType": 5126,
      "count": 3796,
      "max": [
        0.9920564889907837,
        0.9920564889907837,
        2.392796516418457
      ],
      "min": [
        -0.9920564889907837,
        -0.9920564889907837,
        -3.271775484085083
      ],
      "type": "VEC3"
    },
    {
      "bufferView": 2,
      "byteOffset": 45552,
      "componentType": 5126,
      "count": 3796,
      "max": [
        1,
        1,
        1
      ],
      "min": [
        -1,
        -1,
        -1
      ],
      "type": "VEC3"
    },
    {
      "bufferView": 3,
      "componentType": 5126,
      "count": 3796,
      "max": [
        1,
        0.9999984502792358,
        1,
        1
      ],
      "min": [
        -1,
        -0.9999045729637146,
        -1,
        -1
      ],
      "type": "VEC4"
    },
    {
      "bufferView": 1,
      "componentType": 5126,
      "count": 3796,
      "max": [
        1,
        0.9977367520332336
      ],
      "min": [
        0,
        0
      ],
      "type": "VEC2"
    },
    {
      "bufferView": 0,
      "componentType": 5125,
      "count": 12324,
      "type": "SCALAR"
    }
  ],
  "asset": {
    "extras": {
      "author": "GameDev Nick (https://sketchfab.com/GameDevNick)",
      "license": "CC-BY-4.0 (http://creativecommons.org/licenses/by/4.0/)",
      "source": "https://sketchfab.com/3d-models/rusty-kerosene-lamp-637b04f33d4b4c1496c937e6dea58542",
      "title": "Rusty Kerosene Lamp"
    },
    "generator": "Sketchfab-14.35.0",
    "version": "2.0"
  },
  "bufferViews": [
    {
      "buffer": 0,
      "byteLength": 49296,
      "name": "floatBufferViews",
      "target": 34963
    },
    {
      "buffer": 0,
      "byteLength": 30368,
      "byteOffset": 49296,
      "byteStride": 8,
      "name": "floatBufferViews",
      "target": 34962
    },
    {
      "buffer": 0,
      "byteLength": 91104,
      "byteOffset": 79664,
      "byteStride": 12,
      "name": "floatBufferViews",
      "target": 34962
    },
    {
      "buffer": 0,
      "byteLength": 60736,
      "byteOffset": 170768,
      "byteStride": 16,
      "name": "floatBufferViews",
      "target": 34962
    }
  ],
  "buffers": [
    {
      "byteLength": 231504,
      "uri": "scene.bin"
    }
  ],
  "extensionsUsed": [
    "KHR_materials_transmission",
    "EXT_texture_avif"
  ],
  "images": [
    {
      "uri": "textures/Material.001_baseColor.512.avif",
      "mimeType": "image/avif"
    },
    {
      "uri": "textures/Material.001_metallicRoughness.512.avif",
      "mimeType": "image/avif"
    },
    {
      "uri": "textures/Material.001_normal.512.avif",
      "mimeType": "image/avif"
    },
    {
      "uri": "textures/Material.001_transmission.512.avif",
      "mimeType": "image/avif"
    }
  ],
  "materials": [
    {
      "alphaMode": "BLEND",
      "doubleSided": true,
      "extensions": {
        "KHR_materials_transmission": {
          "transmissionFactor": 1,
          "transmissionTexture": {
            "index": 3
          }
        }
      },
      "name": "Material.001",
      "normalTexture": {
        "index": 2
      },
      "pbrMetallicRoughness": {
        "baseColorTexture": {
          "index": 0
        },
        "metallicRoughnessTexture": {
          "index": 1
        }
      }
    }
  ],
  "meshes": [
    {
      "name": "KeroseneLamp1_Material.001_0",
      "primitives": [
        {
          "attributes": {
            "NORMAL": 1,
            "POSITION": 0,
            "TANGENT": 2,
            "TEXCOORD_0": 3
          },
          "indices": 4,
          "material": 0,
          "mode": 4
        }
      ]
    }
  ],
  "nodes": [
    {
      "children": [
        1
      ],
      "matrix": [
        1,
        0,
        0,
        0,
        0,
        2.220446049250313e-16,
        -1,
        0,
        0,
        1,
        2.220446049250313e-16,
        0,
        0,
        0,
        0,
        1
      ],
      "name": "Sketchfab_model"
    },
    {
      "children": [
        2
      ],
      "matrix": [
        0.009999999776482582,
        0,
        0,
        0,
        0,
        0,
        0.009999999776482582,
        0,
        0,
        -0.009999999776482582,
        0,
        0,
        0,
        0,
        0,
        1
      ],
      "name": "afa13a0878ae41839902975c9cd3b122.fbx"
    },
    {
      "children": [
        3
      ],
      "name": "RootNode"
    },
    {
      "children": [
        4
      ],
      "matrix": [
        100,
        0,
        0,
        0,
        0,
        -0.00001629206793918314,
        -99.99999999999868,
        0,
        0,
        99.99999999999868,
        -0.00001629206793918314,
        0,
        0,
        0,
        0,
        1
      ],
      "name": "KeroseneLamp1"
    },
    {
      "mesh": 0,
      "name": "KeroseneLamp1_Material.001_0"
    }
  ],
  "samplers": [
    {
      "magFilter": 9729,
      "minFilter": 9987,
      "wrapS": 10497,
      "wrapT": 10497
    }
  ],
  "scene": 0,
  "scenes": [
    {
      "name": "Sketchfab_Scene",
      "nodes": [
        0
      ]
    }
  ],
  "textures": [
    {
      "sampler": 0,
      "source": 0,
      "extensions": {
        "EXT_texture_avif": {
          "source": 0
        }
      }
    },
    {
      "sampler": 0,
      "source": 1,
      "extensions": {
        "EXT_texture_avif": {
          "source": 1
        }
      }
    },
    {
      "sampler": 0,
      "source": 2,
      "extensions": {
        "EXT_texture_avif": {
          "source": 2
        }
      }
    },
    {
      "sampler": 0,
      "source": 3,
      "extensions": {
        "EXT_texture_avif": {
          "source": 3
        }
      }
    }
  ]
}
