{
  "accessors": [
    {
      "bufferView": 2,
      "componentType": 5126,
      "count": 377,
      "max": [
        0.013124999590218067,
        0.004999999888241291,
        0.004843750037252903
      ],
      "min": [
        -0.012031249701976776,
        -0.004687499720603228,
        -0.004921874962747097
      ],
      "type": "VEC3"
    },
    {
      "bufferView": 2,
      "byteOffset": 4524,
      "componentType": 5126,
      "count": 377,
      "max": [
        0.9999980926513672,
        0.9999961853027344,
        0.9999982118606567
      ],
      "min": [
        -0.9999980926513672,
        -1,
        -0.9999982118606567
      ],
      "type": "VEC3"
    },
    {
      "bufferView": 3,
      "componentType": 5126,
      "count": 377,
      "max": [
        1,
        1,
        1,
        1
      ],
      "min": [
        1,
        1,
        1,
        1
      ],
      "type": "VEC4"
    },
    {
      "bufferView": 1,
      "componentType": 5126,
      "count": 377,
      "max": [
        0.970458984375,
        0.91790771484375
      ],
      "min": [
        0.25048828125,
        0.02044677734375
      ],
      "type": "VEC2"
    },
    {
      "bufferView": 1,
      "byteOffset": 3016,
      "componentType": 5126,
      "count": 377,
      "max": [
        0,
        0
      ],
      "min": [
        0,
        0
      ],
      "type": "VEC2"
    },
    {
      "bufferView": 1,
      "byteOffset": 6032,
      "componentType": 5126,
      "count": 377,
      "max": [
        0,
        0
      ],
      "min": [
        0,
        0
      ],
      "type": "VEC2"
    },
    {
      "bufferView": 1,
      "byteOffset": 9048,
      "componentType": 5126,
      "count": 377,
      "max": [
        0,
        0
      ],
      "min": [
        0,
        0
      ],
      "type": "VEC2"
    },
    {
      "bufferView": 1,
      "byteOffset": 12064,
      "componentType": 5126,
      "count": 377,
      "max": [
        0,
        0
      ],
      "min": [
        0,
        0
      ],
      "type": "VEC2"
    },
    {
      "bufferView": 1,
      "byteOffset": 15080,
      "componentType": 5126,
      "count": 377,
      "max": [
        0,
        0
      ],
      "min": [
        0,
        0
      ],
      "type": "VEC2"
    },
    {
      "bufferView": 1,
      "byteOffset": 18096,
      "componentType": 5126,
      "count": 377,
      "max": [
        0,
        0
      ],
      "min": [
        0,
        0
      ],
      "type": "VEC2"
    },
    {
      "bufferView": 1,
      "byteOffset": 21112,
      "componentType": 5126,
      "count": 377,
      "max": [
        0,
        0
      ],
      "min": [
        0,
        0
      ],
      "type": "VEC2"
    },
    {
      "bufferView": 0,
      "componentType": 5125,
      "count": 1230,
      "type": "SCALAR"
    },
    {
      "bufferView": 2,
      "byteOffset": 9048,
      "componentType": 5126,
      "count": 288,
      "max": [
        0.009999999776482582,
        0.004609374795109034,
        0.004921874962747097
      ],
      "min": [
        -0.008046874776482582,
        -0.005078124813735485,
        -0.004765625111758709
      ],
      "type": "VEC3"
    },
    {
      "bufferView": 2,
      "byteOffset": 12504,
      "componentType": 5126,
      "count": 288,
      "max": [
        0.9999980926513672,
        0.9999960660934448,
        0.9999982118606567
      ],
      "min": [
        -0.9999980926513672,
        -0.9927810430526733,
        -0.9999982118606567
      ],
      "type": "VEC3"
    },
    {
      "bufferView": 3,
      "byteOffset": 6032,
      "componentType": 5126,
      "count": 288,
      "max": [
        1,
        1,
        1,
        1
      ],
      "min": [
        1,
        1,
        1,
        1
      ],
      "type": "VEC4"
    },
    {
      "bufferView": 1,
      "byteOffset": 24128,
      "componentType": 5126,
      "count": 288,
      "max": [
        0.9541015625,
        0.91790771484375
      ],
      "min": [
        0.25048828125,
        0.02044677734375
      ],
      "type": "VEC2"
    },
    {
      "bufferView": 1,
      "byteOffset": 26432,
      "componentType": 5126,
      "count": 288,
      "max": [
        0,
        0
      ],
      "min": [
        0,
        0
      ],
      "type": "VEC2"
    },
    {
      "bufferView": 1,
      "byteOffset": 28736,
      "componentType": 5126,
      "count": 288,
      "max": [
        0,
        0
      ],
      "min": [
        0,
        0
      ],
      "type": "VEC2"
    },
    {
      "bufferView": 1,
      "byteOffset": 31040,
      "componentType": 5126,
      "count": 288,
      "max": [
        0,
        0
      ],
      "min": [
        0,
        0
      ],
      "type": "VEC2"
    },
    {
      "bufferView": 1,
      "byteOffset": 33344,
      "componentType": 5126,
      "count": 288,
      "max": [
        0,
        0
      ],
      "min": [
        0,
        0
      ],
      "type": "VEC2"
    },
    {
      "bufferView": 1,
      "byteOffset": 35648,
      "componentType": 5126,
      "count": 288,
      "max": [
        0,
        0
      ],
      "min": [
        0,
        0
      ],
      "type": "VEC2"
    },
    {
      "bufferView": 1,
      "byteOffset": 37952,
      "componentType": 5126,
      "count": 288,
      "max": [
        0,
        0
      ],
      "min": [
        0,
        0
      ],
      "type": "VEC2"
    },
    {
      "bufferView": 1,
      "byteOffset": 40256,
      "componentType": 5126,
      "count": 288,
      "max": [
        0,
        0
      ],
      "min": [
        0,
        0
      ],
      "type": "VEC2"
    },
    {
      "bufferView": 0,
      "byteOffset": 4920,
      "componentType": 5125,
      "count": 804,
      "type": "SCALAR"
    },
    {
      "bufferView": 2,
      "byteOffset": 15960,
      "componentType": 5126,
      "count": 620,
      "max": [
        0.004218749701976776,
        0.013749999925494194,
        0.004218749701976776
      ],
      "min": [
        -0.020781248807907104,
        -0.012656250037252903,
        -0.004218749701976776
      ],
      "type": "VEC3"
    },
    {
      "bufferView": 2,
      "byteOffset": 23400,
      "componentType": 5126,
      "count": 620,
      "max": [
        0.9995388388633728,
        0.9998360872268677,
        0.9999980926513672
      ],
      "min": [
        -0.9999014139175415,
        -0.9905986785888672,
        -0.9999982118606567
      ],
      "type": "VEC3"
    },
    {
      "bufferView": 3,
      "byteOffset": 10640,
      "componentType": 5126,
      "count": 620,
      "max": [
        1,
        1,
        1,
        1
      ],
      "min": [
        1,
        1,
        1,
        1
      ],
      "type": "VEC4"
    },
    {
      "bufferView": 1,
      "byteOffset": 42560,
      "componentType": 5126,
      "count": 620,
      "max": [
        0.964111328125,
        0.99609375
      ],
      "min": [
        0.00390625,
        0.00494384765625
      ],
      "type": "VEC2"
    },
    {
      "bufferView": 1,
      "byteOffset": 47520,
      "componentType": 5126,
      "count": 620,
      "max": [
        0,
        0
      ],
      "min": [
        0,
        0
      ],
      "type": "VEC2"
    },
    {
      "bufferView": 1,
      "byteOffset": 52480,
      "componentType": 5126,
      "count": 620,
      "max": [
        0,
        0
      ],
      "min": [
        0,
        0
      ],
      "type": "VEC2"
    },
    {
      "bufferView": 1,
      "byteOffset": 57440,
      "componentType": 5126,
      "count": 620,
      "max": [
        0,
        0
      ],
      "min": [
        0,
        0
      ],
      "type": "VEC2"
    },
    {
      "bufferView": 1,
      "byteOffset": 62400,
      "componentType": 5126,
      "count": 620,
      "max": [
        0,
        0
      ],
      "min": [
        0,
        0
      ],
      "type": "VEC2"
    },
    {
      "bufferView": 1,
      "byteOffset": 67360,
      "componentType": 5126,
      "count": 620,
      "max": [
        0,
        0
      ],
      "min": [
        0,
        0
      ],
      "type": "VEC2"
    },
    {
      "bufferView": 1,
      "byteOffset": 72320,
      "componentType": 5126,
      "count": 620,
      "max": [
        0,
        0
      ],
      "min": [
        0,
        0
      ],
      "type": "VEC2"
    },
    {
      "bufferView": 1,
      "byteOffset": 77280,
      "componentType": 5126,
      "count": 620,
      "max": [
        0,
        0
      ],
      "min": [
        0,
        0
      ],
      "type": "VEC2"
    },
    {
      "bufferView": 0,
      "byteOffset": 8136,
      "componentType": 5125,
      "count": 1644,
      "type": "SCALAR"
    },
    {
      "bufferView": 2,
      "byteOffset": 30840,
      "componentType": 5126,
      "count": 4996,
      "max": [
        0.12421874701976776,
        0.047343749552965164,
        0.014218749478459358
      ],
      "min": [
        -0.04156249761581421,
        -0.07000000029802322,
        -0.017031250521540642
      ],
      "type": "VEC3"
    },
    {
      "bufferView": 2,
      "byteOffset": 90792,
      "componentType": 5126,
      "count": 4996,
      "max": [
        0.9999980926513672,
        0.9999960660934448,
        0.9999982118606567
      ],
      "min": [
        -0.9999980926513672,
        -1,
        -0.9999982118606567
      ],
      "type": "VEC3"
    },
    {
      "bufferView": 3,
      "byteOffset": 20560,
      "componentType": 5126,
      "count": 4996,
      "max": [
        1,
        1,
        1,
        1
      ],
      "min": [
        1,
        1,
        1,
        1
      ],
      "type": "VEC4"
    },
    {
      "bufferView": 1,
      "byteOffset": 82240,
      "componentType": 5126,
      "count": 4996,
      "max": [
        0.98760986328125,
        0.99609375
      ],
      "min": [
        0.00390625,
        0.00390625
      ],
      "type": "VEC2"
    },
    {
      "bufferView": 1,
      "byteOffset": 122208,
      "componentType": 5126,
      "count": 4996,
      "max": [
        0,
        0
      ],
      "min": [
        0,
        0
      ],
      "type": "VEC2"
    },
    {
      "bufferView": 1,
      "byteOffset": 162176,
      "componentType": 5126,
      "count": 4996,
      "max": [
        0,
        0
      ],
      "min": [
        0,
        0
      ],
      "type": "VEC2"
    },
    {
      "bufferView": 1,
      "byteOffset": 202144,
      "componentType": 5126,
      "count": 4996,
      "max": [
        0,
        0
      ],
      "min": [
        0,
        0
      ],
      "type": "VEC2"
    },
    {
      "bufferView": 1,
      "byteOffset": 242112,
      "componentType": 5126,
      "count": 4996,
      "max": [
        0,
        0
      ],
      "min": [
        0,
        0
      ],
      "type": "VEC2"
    },
    {
      "bufferView": 1,
      "byteOffset": 282080,
      "componentType": 5126,
      "count": 4996,
      "max": [
        0,
        0
      ],
      "min": [
        0,
        0
      ],
      "type": "VEC2"
    },
    {
      "bufferView": 1,
      "byteOffset": 322048,
      "componentType": 5126,
      "count": 4996,
      "max": [
        0,
        0
      ],
      "min": [
        0,
        0
      ],
      "type": "VEC2"
    },
    {
      "bufferView": 1,
      "byteOffset": 362016,
      "componentType": 5126,
      "count": 4996,
      "max": [
        0,
        0
      ],
      "min": [
        0,
        0
      ],
      "type": "VEC2"
    },
    {
      "bufferView": 0,
      "byteOffset": 14712,
      "componentType": 5125,
      "count": 19095,
      "type": "SCALAR"
    },
    {
      "bufferView": 2,
      "byteOffset": 150744,
      "componentType": 5126,
      "count": 483,
      "max": [
        0.007578124757856131,
        0.01718750037252903,
        -0.0008593749953433871
      ],
      "min": [
        -0.004765625111758709,
        -0.006171874701976776,
        -0.0169531237334013
      ],
      "type": "VEC3"
    },
    {
      "bufferView": 2,
      "byteOffset": 156540,
      "componentType": 5126,
      "count": 483,
      "max": [
        0.9999014139175415,
        0.9988835453987122,
        0.9999982118606567
      ],
      "min": [
        -0.9996548295021057,
        -0.9980639219284058,
        -0.9999980926513672
      ],
      "type": "VEC3"
    },
    {
      "bufferView": 3,
      "byteOffset": 100496,
      "componentType": 5126,
      "count": 483,
      "max": [
        0.003921568859368563,
        0.003921568859368563,
        0.003921568859368563,
        0
      ],
      "min": [
        0.003921568859368563,
        0.003921568859368563,
        0.003921568859368563,
        0
      ],
      "type": "VEC4"
    },
    {
      "bufferView": 1,
      "byteOffset": 401984,
      "componentType": 5126,
      "count": 483,
      "max": [
        0.98046875,
        0.99609375
      ],
      "min": [
        0.02545166015625,
        0.00836181640625
      ],
      "type": "VEC2"
    },
    {
      "bufferView": 1,
      "byteOffset": 405848,
      "componentType": 5126,
      "count": 483,
      "max": [
        0,
        0
      ],
      "min": [
        0,
        0
      ],
      "type": "VEC2"
    },
    {
      "bufferView": 1,
      "byteOffset": 409712,
      "componentType": 5126,
      "count": 483,
      "max": [
        0,
        0
      ],
      "min": [
        0,
        0
      ],
      "type": "VEC2"
    },
    {
      "bufferView": 1,
      "byteOffset": 413576,
      "componentType": 5126,
      "count": 483,
      "max": [
        0,
        0
      ],
      "min": [
        0,
        0
      ],
      "type": "VEC2"
    },
    {
      "bufferView": 1,
      "byteOffset": 417440,
      "componentType": 5126,
      "count": 483,
      "max": [
        0,
        0
      ],
      "min": [
        0,
        0
      ],
      "type": "VEC2"
    },
    {
      "bufferView": 1,
      "byteOffset": 421304,
      "componentType": 5126,
      "count": 483,
      "max": [
        0,
        0
      ],
      "min": [
        0,
        0
      ],
      "type": "VEC2"
    },
    {
      "bufferView": 1,
      "byteOffset": 425168,
      "componentType": 5126,
      "count": 483,
      "max": [
        0,
        0
      ],
      "min": [
        0,
        0
      ],
      "type": "VEC2"
    },
    {
      "bufferView": 1,
      "byteOffset": 429032,
      "componentType": 5126,
      "count": 483,
      "max": [
        0,
        0
      ],
      "min": [
        0,
        0
      ],
      "type": "VEC2"
    },
    {
      "bufferView": 0,
      "byteOffset": 91092,
      "componentType": 5125,
      "count": 1368,
      "type": "SCALAR"
    },
    {
      "bufferView": 2,
      "byteOffset": 162336,
      "componentType": 5126,
      "count": 175,
      "max": [
        0.006640624720603228,
        0.0027343749534338713,
        -0.008750000037252903
      ],
      "min": [
        -0.007187499664723873,
        -0.007578124757856131,
        -0.01445312425494194
      ],
      "type": "VEC3"
    },
    {
      "bufferView": 2,
      "byteOffset": 164436,
      "componentType": 5126,
      "count": 175,
      "max": [
        0.9986711144447327,
        0.9999960660934448,
        0.9999980926513672
      ],
      "min": [
        -0.9915518760681152,
        -1,
        -0.9995388388633728
      ],
      "type": "VEC3"
    },
    {
      "bufferView": 3,
      "byteOffset": 108224,
      "componentType": 5126,
      "count": 175,
      "max": [
        0.003921568859368563,
        0.003921568859368563,
        0.003921568859368563,
        0
      ],
      "min": [
        0.003921568859368563,
        0.003921568859368563,
        0.003921568859368563,
        0
      ],
      "type": "VEC4"
    },
    {
      "bufferView": 1,
      "byteOffset": 432896,
      "componentType": 5126,
      "count": 175,
      "max": [
        0.91973876953125,
        0.60198974609375
      ],
      "min": [
        0.14093017578125,
        0.03106689453125
      ],
      "type": "VEC2"
    },
    {
      "bufferView": 1,
      "byteOffset": 434296,
      "componentType": 5126,
      "count": 175,
      "max": [
        0,
        0
      ],
      "min": [
        0,
        0
      ],
      "type": "VEC2"
    },
    {
      "bufferView": 1,
      "byteOffset": 435696,
      "componentType": 5126,
      "count": 175,
      "max": [
        0,
        0
      ],
      "min": [
        0,
        0
      ],
      "type": "VEC2"
    },
    {
      "bufferView": 1,
      "byteOffset": 437096,
      "componentType": 5126,
      "count": 175,
      "max": [
        0,
        0
      ],
      "min": [
        0,
        0
      ],
      "type": "VEC2"
    },
    {
      "bufferView": 1,
      "byteOffset": 438496,
      "componentType": 5126,
      "count": 175,
      "max": [
        0,
        0
      ],
      "min": [
        0,
        0
      ],
      "type": "VEC2"
    },
    {
      "bufferView": 1,
      "byteOffset": 439896,
      "componentType": 5126,
      "count": 175,
      "max": [
        0,
        0
      ],
      "min": [
        0,
        0
      ],
      "type": "VEC2"
    },
    {
      "bufferView": 1,
      "byteOffset": 441296,
      "componentType": 5126,
      "count": 175,
      "max": [
        0,
        0
      ],
      "min": [
        0,
        0
      ],
      "type": "VEC2"
    },
    {
      "bufferView": 1,
      "byteOffset": 442696,
      "componentType": 5126,
      "count": 175,
      "max": [
        0,
        0
      ],
      "min": [
        0,
        0
      ],
      "type": "VEC2"
    },
    {
      "bufferView": 0,
      "byteOffset": 96564,
      "componentType": 5125,
      "count": 660,
      "type": "SCALAR"
    },
    {
      "bufferView": 2,
      "byteOffset": 166536,
      "componentType": 5126,
      "count": 3789,
      "max": [
        0.06499999761581421,
        0.017656249925494194,
        0.01249999925494194
      ],
      "min": [
        -0.09749999642372131,
        -0.013281249441206455,
        -0.01249999925494194
      ],
      "type": "VEC3"
    },
    {
      "bufferView": 2,
      "byteOffset": 212004,
      "componentType": 5126,
      "count": 3789,
      "max": [
        0.9999980926513672,
        0.9999960660934448,
        0.9999982118606567
      ],
      "min": [
        -0.9999982118606567,
        -1,
        -0.9999982118606567
      ],
      "type": "VEC3"
    },
    {
      "bufferView": 3,
      "byteOffset": 111024,
      "componentType": 5126,
      "count": 3789,
      "max": [
        1,
        1,
        1,
        1
      ],
      "min": [
        1,
        1,
        1,
        1
      ],
      "type": "VEC4"
    },
    {
      "bufferView": 1,
      "byteOffset": 444096,
      "componentType": 5126,
      "count": 3789,
      "max": [
        0.9888916015625,
        0.99609375
      ],
      "min": [
        0.00390625,
        0.00592041015625
      ],
      "type": "VEC2"
    },
    {
      "bufferView": 1,
      "byteOffset": 474408,
      "componentType": 5126,
      "count": 3789,
      "max": [
        0,
        0
      ],
      "min": [
        0,
        0
      ],
      "type": "VEC2"
    },
    {
      "bufferView": 1,
      "byteOffset": 504720,
      "componentType": 5126,
      "count": 3789,
      "max": [
        0,
        0
      ],
      "min": [
        0,
        0
      ],
      "type": "VEC2"
    },
    {
      "bufferView": 1,
      "byteOffset": 535032,
      "componentType": 5126,
      "count": 3789,
      "max": [
        0,
        0
      ],
      "min": [
        0,
        0
      ],
      "type": "VEC2"
    },
    {
      "bufferView": 1,
      "byteOffset": 565344,
      "componentType": 5126,
      "count": 3789,
      "max": [
        0,
        0
      ],
      "min": [
        0,
        0
      ],
      "type": "VEC2"
    },
    {
      "bufferView": 1,
      "byteOffset": 595656,
      "componentType": 5126,
      "count": 3789,
      "max": [
        0,
        0
      ],
      "min": [
        0,
        0
      ],
      "type": "VEC2"
    },
    {
      "bufferView": 1,
      "byteOffset": 625968,
      "componentType": 5126,
      "count": 3789,
      "max": [
        0,
        0
      ],
      "min": [
        0,
        0
      ],
      "type": "VEC2"
    },
    {
      "bufferView": 1,
      "byteOffset": 656280,
      "componentType": 5126,
      "count": 3789,
      "max": [
        0,
        0
      ],
      "min": [
        0,
        0
      ],
      "type": "VEC2"
    },
    {
      "bufferView": 0,
      "byteOffset": 99204,
      "componentType": 5125,
      "count": 12108,
      "type": "SCALAR"
    },
    {
      "bufferView": 2,
      "byteOffset": 257472,
      "componentType": 5126,
      "count": 300,
      "max": [
        0.017734374850988388,
        0.0064843748696148396,
        0.003281249897554517
      ],
      "min": [
        -0.0064843748696148396,
        -0.025703124701976776,
        -0.003281249897554517
      ],
      "type": "VEC3"
    },
    {
      "bufferView": 2,
      "byteOffset": 261072,
      "componentType": 5126,
      "count": 300,
      "max": [
        0.9997538924217224,
        0.9957846999168396,
        0.9999980926513672
      ],
      "min": [
        -0.9969514608383179,
        -0.994172990322113,
        -0.9999980926513672
      ],
      "type": "VEC3"
    },
    {
      "bufferView": 3,
      "byteOffset": 171648,
      "componentType": 5126,
      "count": 300,
      "max": [
        1,
        1,
        1,
        1
      ],
      "min": [
        1,
        1,
        1,
        1
      ],
      "type": "VEC4"
    },
    {
      "bufferView": 1,
      "byteOffset": 686592,
      "componentType": 5126,
      "count": 300,
      "max": [
        0.8824462890625,
        0.5877685546875
      ],
      "min": [
        0.15655517578125,
        0.00885009765625
      ],
      "type": "VEC2"
    },
    {
      "bufferView": 1,
      "byteOffset": 688992,
      "componentType": 5126,
      "count": 300,
      "max": [
        0,
        0
      ],
      "min": [
        0,
        0
      ],
      "type": "VEC2"
    },
    {
      "bufferView": 1,
      "byteOffset": 691392,
      "componentType": 5126,
      "count": 300,
      "max": [
        0,
        0
      ],
      "min": [
        0,
        0
      ],
      "type": "VEC2"
    },
    {
      "bufferView": 1,
      "byteOffset": 693792,
      "componentType": 5126,
      "count": 300,
      "max": [
        0,
        0
      ],
      "min": [
        0,
        0
      ],
      "type": "VEC2"
    },
    {
      "bufferView": 1,
      "byteOffset": 696192,
      "componentType": 5126,
      "count": 300,
      "max": [
        0,
        0
      ],
      "min": [
        0,
        0
      ],
      "type": "VEC2"
    },
    {
      "bufferView": 1,
      "byteOffset": 698592,
      "componentType": 5126,
      "count": 300,
      "max": [
        0,
        0
      ],
      "min": [
        0,
        0
      ],
      "type": "VEC2"
    },
    {
      "bufferView": 1,
      "byteOffset": 700992,
      "componentType": 5126,
      "count": 300,
      "max": [
        0,
        0
      ],
      "min": [
        0,
        0
      ],
      "type": "VEC2"
    },
    {
      "bufferView": 1,
      "byteOffset": 703392,
      "componentType": 5126,
      "count": 300,
      "max": [
        0,
        0
      ],
      "min": [
        0,
        0
      ],
      "type": "VEC2"
    },
    {
      "bufferView": 0,
      "byteOffset": 147636,
      "componentType": 5125,
      "count": 1002,
      "type": "SCALAR"
    }
  ],
  "asset": {
    "extras": {
      "author": "pr1mer (https://sketchfab.com/axlebolt2681)",
      "license": "CC-BY-4.0 (http://creativecommons.org/licenses/by/4.0/)",
      "source": "https://sketchfab.com/3d-models/ptm-02356-1967-stalker-2-50a0ad249bef4e9d815565609a1d71ad",
      "title": "PTM 02356-1967 | S.T.A.L.K.E.R. 2"
    },
    "generator": "Sketchfab-16.82.0",
    "version": "2.0"
  },
  "bufferViews": [
    {
      "buffer": 0,
      "byteLength": 151644,
      "name": "floatBufferViews",
      "target": 34963
    },
    {
      "buffer": 0,
      "byteLength": 705792,
      "byteOffset": 151644,
      "byteStride": 8,
      "name": "floatBufferViews",
      "target": 34962
    },
    {
      "buffer": 0,
      "byteLength": 264672,
      "byteOffset": 857436,
      "byteStride": 12,
      "name": "floatBufferViews",
      "target": 34962
    },
    {
      "buffer": 0,
      "byteLength": 176448,
      "byteOffset": 1122108,
      "byteStride": 16,
      "name": "floatBufferViews",
      "target": 34962
    }
  ],
  "buffers": [
    {
      "byteLength": 1298556,
      "uri": "scene.bin"
    }
  ],
  "images": [
    {
      "uri": "textures/MI_pm_base_baseColor.512.avif",
      "mimeType": "image/avif"
    }
  ],
  "materials": [
    {
      "name": "MI_pm_base",
      "pbrMetallicRoughness": {
        "baseColorTexture": {
          "index": 0
        }
      }
    },
    {
      "name": "MI_pm_base.001",
      "pbrMetallicRoughness": {
        "baseColorTexture": {
          "index": 0
        }
      }
    },
    {
      "name": "MI_pm_base.003",
      "pbrMetallicRoughness": {
        "baseColorTexture": {
          "index": 0
        }
      }
    },
    {
      "name": "MI_pm_base.004",
      "pbrMetallicRoughness": {
        "baseColorTexture": {
          "index": 0
        }
      }
    },
    {
      "name": "MI_pm_base.005"
    },
    {
      "name": "MI_pm_base.006"
    },
    {
      "name": "MI_pm_base.007",
      "pbrMetallicRoughness": {
        "baseColorTexture": {
          "index": 0
        }
      }
    },
    {
      "name": "MI_pm_base.008",
      "pbrMetallicRoughness": {
        "baseColorTexture": {
          "index": 0
        }
      }
    }
  ],
  "meshes": [
    {
      "name": "Object_0",
      "primitives": [
        {
          "attributes": {
            "COLOR_0": 2,
            "NORMAL": 1,
            "POSITION": 0,
            "TEXCOORD_0": 3,
            "TEXCOORD_1": 4,
            "TEXCOORD_2": 5,
            "TEXCOORD_3": 6,
            "TEXCOORD_4": 7,
            "TEXCOORD_5": 8,
            "TEXCOORD_6": 9,
            "TEXCOORD_7": 10
          },
          "indices": 11,
          "material": 0,
          "mode": 4
        }
      ]
    },
    {
      "name": "Object_1",
      "primitives": [
        {
          "attributes": {
            "COLOR_0": 14,
            "NORMAL": 13,
            "POSITION": 12,
            "TEXCOORD_0": 15,
            "TEXCOORD_1": 16,
            "TEXCOORD_2": 17,
            "TEXCOORD_3": 18,
            "TEXCOORD_4": 19,
            "TEXCOORD_5": 20,
            "TEXCOORD_6": 21,
            "TEXCOORD_7": 22
          },
          "indices": 23,
          "material": 1,
          "mode": 4
        }
      ]
    },
    {
      "name": "Object_2",
      "primitives": [
        {
          "attributes": {
            "COLOR_0": 26,
            "NORMAL": 25,
            "POSITION": 24,
            "TEXCOORD_0": 27,
            "TEXCOORD_1": 28,
            "TEXCOORD_2": 29,
            "TEXCOORD_3": 30,
            "TEXCOORD_4": 31,
            "TEXCOORD_5": 32,
            "TEXCOORD_6": 33,
            "TEXCOORD_7": 34
          },
          "indices": 35,
          "material": 2,
          "mode": 4
        }
      ]
    },
    {
      "name": "Object_3",
      "primitives": [
        {
          "attributes": {
            "COLOR_0": 38,
            "NORMAL": 37,
            "POSITION": 36,
            "TEXCOORD_0": 39,
            "TEXCOORD_1": 40,
            "TEXCOORD_2": 41,
            "TEXCOORD_3": 42,
            "TEXCOORD_4": 43,
            "TEXCOORD_5": 44,
            "TEXCOORD_6": 45,
            "TEXCOORD_7": 46
          },
          "indices": 47,
          "material": 3,
          "mode": 4
        }
      ]
    },
    {
      "name": "Object_4",
      "primitives": [
        {
          "attributes": {
            "COLOR_0": 50,
            "NORMAL": 49,
            "POSITION": 48,
            "TEXCOORD_0": 51,
            "TEXCOORD_1": 52,
            "TEXCOORD_2": 53,
            "TEXCOORD_3": 54,
            "TEXCOORD_4": 55,
            "TEXCOORD_5": 56,
            "TEXCOORD_6": 57,
            "TEXCOORD_7": 58
          },
          "indices": 59,
          "material": 4,
          "mode": 4
        }
      ]
    },
    {
      "name": "Object_5",
      "primitives": [
        {
          "attributes": {
            "COLOR_0": 62,
            "NORMAL": 61,
            "POSITION": 60,
            "TEXCOORD_0": 63,
            "TEXCOORD_1": 64,
            "TEXCOORD_2": 65,
            "TEXCOORD_3": 66,
            "TEXCOORD_4": 67,
            "TEXCOORD_5": 68,
            "TEXCOORD_6": 69,
            "TEXCOORD_7": 70
          },
          "indices": 71,
          "material": 5,
          "mode": 4
        }
      ]
    },
    {
      "name": "Object_6",
      "primitives": [
        {
          "attributes": {
            "COLOR_0": 74,
            "NORMAL": 73,
            "POSITION": 72,
            "TEXCOORD_0": 75,
            "TEXCOORD_1": 76,
            "TEXCOORD_2": 77,
            "TEXCOORD_3": 78,
            "TEXCOORD_4": 79,
            "TEXCOORD_5": 80,
            "TEXCOORD_6": 81,
            "TEXCOORD_7": 82
          },
          "indices": 83,
          "material": 6,
          "mode": 4
        }
      ]
    },
    {
      "name": "Object_7",
      "primitives": [
        {
          "attributes": {
            "COLOR_0": 86,
            "NORMAL": 85,
            "POSITION": 84,
            "TEXCOORD_0": 87,
            "TEXCOORD_1": 88,
            "TEXCOORD_2": 89,
            "TEXCOORD_3": 90,
            "TEXCOORD_4": 91,
            "TEXCOORD_5": 92,
            "TEXCOORD_6": 93,
            "TEXCOORD_7": 94
          },
          "indices": 95,
          "material": 7,
          "mode": 4
        }
      ]
    }
  ],
  "nodes": [
    {
      "children": [
        1
      ],
      "matrix": [
        1,
        0,
        0,
        0,
        0,
        2.220446049250313e-16,
        -1,
        0,
        0,
        1,
        2.220446049250313e-16,
        0,
        0,
        0,
        0,
        1
      ],
      "name": "Sketchfab_model"
    },
    {
      "children": [
        2
      ],
      "name": "root"
    },
    {
      "children": [
        3,
        5,
        7,
        9,
        11,
        13,
        15,
        17
      ],
      "matrix": [
        1,
        0,
        0,
        0,
        0,
        2.220446049250313e-16,
        1,
        0,
        0,
        -1,
        2.220446049250313e-16,
        0,
        0,
        0,
        0,
        1
      ],
      "name": "GLTF_SceneRootNode"
    },
    {
      "children": [
        4
      ],
      "matrix": [
        1,
        0,
        0,
        0,
        0,
        1,
        0,
        0,
        0,
        0,
        1,
        0,
        0.0034265336580574512,
        0.03533884882926941,
        0,
        1
      ],
      "name": "SM_wpn_pm_SM_bullet_0"
    },
    {
      "mesh": 0,
      "name": "Object_4"
    },
    {
      "children": [
        6
      ],
      "matrix": [
        1,
        0,
        0,
        0,
        0,
        1,
        0,
        0,
        0,
        0,
        1,
        0,
        0.04024335369467735,
        0.03669337183237076,
        0,
        1
      ],
      "name": "SM_wpn_pm_SM_bullet_shell_1"
    },
    {
      "mesh": 1,
      "name": "Object_6"
    },
    {
      "children": [
        8
      ],
      "matrix": [
        1,
        0,
        0,
        0,
        0,
        1,
        0,
        0,
        0,
        0,
        1,
        0,
        -0.01629728637635708,
        0.028933506458997726,
        0,
        1
      ],
      "name": "SM_wpn_pm_SM_hammer_2"
    },
    {
      "mesh": 2,
      "name": "Object_8"
    },
    {
      "children": [
        10
      ],
      "matrix": [
        1,
        0,
        0,
        0,
        0,
        1,
        0,
        0,
        0,
        0,
        1,
        0,
        0.00016041583148762584,
        -0.0013666998129338026,
        0,
        1
      ],
      "name": "SM_wpn_pm_SM_offset_3"
    },
    {
      "mesh": 3,
      "name": "Object_10"
    },
    {
      "children": [
        12
      ],
      "matrix": [
        -0.14282375414163706,
        -0.9897481372818488,
        0,
        0,
        0.9897481372818488,
        -0.14282375414163706,
        0,
        0,
        0,
        0,
        1,
        0,
        -0.016641918569803238,
        0.034829504787921906,
        0,
        1
      ],
      "name": "SM_wpn_pm_SM_safety_4"
    },
    {
      "mesh": 4,
      "name": "Object_12"
    },
    {
      "children": [
        14
      ],
      "matrix": [
        1,
        0,
        0,
        0,
        0,
        1,
        0,
        0,
        0,
        0,
        1,
        0,
        0.02329675666987896,
        0.01891576498746872,
        0,
        1
      ],
      "name": "SM_wpn_pm_SM_shutter_delay_5"
    },
    {
      "mesh": 5,
      "name": "Object_14"
    },
    {
      "children": [
        16
      ],
      "matrix": [
        1,
        0,
        0,
        0,
        0,
        1,
        0,
        0,
        0,
        0,
        1,
        0,
        0.05820474773645401,
        0.034444648772478104,
        0,
        1
      ],
      "name": "SM_wpn_pm_SM_slide_6"
    },
    {
      "mesh": 6,
      "name": "Object_16"
    },
    {
      "children": [
        18
      ],
      "matrix": [
        1,
        0,
        0,
        0,
        0,
        1,
        0,
        0,
        0,
        0,
        1,
        0,
        0.04232912138104439,
        0.015715574845671654,
        0,
        1
      ],
      "name": "SM_wpn_pm_SM_trigger_7"
    },
    {
      "mesh": 7,
      "name": "Object_18"
    }
  ],
  "samplers": [
    {
      "magFilter": 9729,
      "minFilter": 9987,
      "wrapS": 10497,
      "wrapT": 10497
    }
  ],
  "scene": 0,
  "scenes": [
    {
      "name": "Sketchfab_Scene",
      "nodes": [
        0
      ]
    }
  ],
  "textures": [
    {
      "sampler": 0,
      "source": 0,
      "extensions": {
        "EXT_texture_avif": {
          "source": 0
        }
      }
    }
  ],
  "extensionsUsed": [
    "EXT_texture_avif"
  ]
}
