{
  "accessors": [
    {
      "bufferView": 2,
      "componentType": 5126,
      "count": 4157,
      "max": [
        0.4185417592525482,
        0.5603693723678589,
        0.29518765211105347
      ],
      "min": [
        -0.46614113450050354,
        -0.2904170751571655,
        -0.0033493638038635254
      ],
      "type": "VEC3"
    },
    {
      "bufferView": 2,
      "byteOffset": 49884,
      "componentType": 5126,
      "count": 4157,
      "max": [
        1,
        1,
        1
      ],
      "min": [
        -1,
        -1,
        -1
      ],
      "type": "VEC3"
    },
    {
      "bufferView": 3,
      "componentType": 5126,
      "count": 4157,
      "max": [
        1,
        1,
        1,
        1
      ],
      "min": [
        -1,
        -0.9996960163116455,
        -1,
        1
      ],
      "type": "VEC4"
    },
    {
      "bufferView": 1,
      "componentType": 5126,
      "count": 4157,
      "max": [
        0.9964243173599243,
        0.9979755878448486
      ],
      "min": [
        0.0019531199941411614,
        0.0019531199941411614
      ],
      "type": "VEC2"
    },
    {
      "bufferView": 1,
      "byteOffset": 33256,
      "componentType": 5126,
      "count": 4157,
      "max": [
        0.9964243173599243,
        0.9979755878448486
      ],
      "min": [
        0.0019531199941411614,
        0.0019531199941411614
      ],
      "type": "VEC2"
    },
    {
      "bufferView": 1,
      "byteOffset": 66512,
      "componentType": 5126,
      "count": 4157,
      "max": [
        0.9964243173599243,
        0.9979755878448486
      ],
      "min": [
        0.0019531199941411614,
        0.0019531199941411614
      ],
      "type": "VEC2"
    },
    {
      "bufferView": 1,
      "byteOffset": 99768,
      "componentType": 5126,
      "count": 4157,
      "max": [
        0.9964243173599243,
        0.9979755878448486
      ],
      "min": [
        0.0019531199941411614,
        0.0019531199941411614
      ],
      "type": "VEC2"
    },
    {
      "bufferView": 1,
      "byteOffset": 133024,
      "componentType": 5126,
      "count": 4157,
      "max": [
        0.9964243173599243,
        0.9979755878448486
      ],
      "min": [
        0.0019531199941411614,
        0.0019531199941411614
      ],
      "type": "VEC2"
    },
    {
      "bufferView": 1,
      "byteOffset": 166280,
      "componentType": 5126,
      "count": 4157,
      "max": [
        0.9964243173599243,
        0.9979755878448486
      ],
      "min": [
        0.0019531199941411614,
        0.0019531199941411614
      ],
      "type": "VEC2"
    },
    {
      "bufferView": 1,
      "byteOffset": 199536,
      "componentType": 5126,
      "count": 4157,
      "max": [
        0.9964243173599243,
        0.9979755878448486
      ],
      "min": [
        0.0019531199941411614,
        0.0019531199941411614
      ],
      "type": "VEC2"
    },
    {
      "bufferView": 1,
      "byteOffset": 232792,
      "componentType": 5126,
      "count": 4157,
      "max": [
        0.9964243173599243,
        0.9979755878448486
      ],
      "min": [
        0.0019531199941411614,
        0.0019531199941411614
      ],
      "type": "VEC2"
    },
    {
      "bufferView": 1,
      "byteOffset": 266048,
      "componentType": 5126,
      "count": 4157,
      "max": [
        0.9964243173599243,
        0.9979755878448486
      ],
      "min": [
        0.0019531199941411614,
        0.0019531199941411614
      ],
      "type": "VEC2"
    },
    {
      "bufferView": 1,
      "byteOffset": 299304,
      "componentType": 5126,
      "count": 4157,
      "max": [
        0.9964243173599243,
        0.9979755878448486
      ],
      "min": [
        0.0019531199941411614,
        0.0019531199941411614
      ],
      "type": "VEC2"
    },
    {
      "bufferView": 0,
      "componentType": 5125,
      "count": 17946,
      "type": "SCALAR"
    },
    {
      "bufferView": 2,
      "byteOffset": 99768,
      "componentType": 5126,
      "count": 3997,
      "max": [
        0.2842671871185303,
        0.269270122051239,
        0.5516827702522278
      ],
      "min": [
        -0.21475040912628174,
        -0.42673730850219727,
        0.019133299589157104
      ],
      "type": "VEC3"
    },
    {
      "bufferView": 2,
      "byteOffset": 147732,
      "componentType": 5126,
      "count": 3997,
      "max": [
        1,
        1,
        1
      ],
      "min": [
        -1,
        -1,
        -1
      ],
      "type": "VEC3"
    },
    {
      "bufferView": 3,
      "byteOffset": 66512,
      "componentType": 5126,
      "count": 3997,
      "max": [
        1,
        1,
        1,
        1
      ],
      "min": [
        -0.9999830722808838,
        -1,
        -1,
        1
      ],
      "type": "VEC4"
    },
    {
      "bufferView": 1,
      "byteOffset": 332560,
      "componentType": 5126,
      "count": 3997,
      "max": [
        0.9963730573654175,
        0.998046875
      ],
      "min": [
        0.0019531199941411614,
        0.0019531199941411614
      ],
      "type": "VEC2"
    },
    {
      "bufferView": 1,
      "byteOffset": 364536,
      "componentType": 5126,
      "count": 3997,
      "max": [
        0.9963730573654175,
        0.998046875
      ],
      "min": [
        0.0019531199941411614,
        0.0019531199941411614
      ],
      "type": "VEC2"
    },
    {
      "bufferView": 1,
      "byteOffset": 396512,
      "componentType": 5126,
      "count": 3997,
      "max": [
        0.9963730573654175,
        0.998046875
      ],
      "min": [
        0.0019531199941411614,
        0.0019531199941411614
      ],
      "type": "VEC2"
    },
    {
      "bufferView": 1,
      "byteOffset": 428488,
      "componentType": 5126,
      "count": 3997,
      "max": [
        0.9963730573654175,
        0.998046875
      ],
      "min": [
        0.0019531199941411614,
        0.0019531199941411614
      ],
      "type": "VEC2"
    },
    {
      "bufferView": 1,
      "byteOffset": 460464,
      "componentType": 5126,
      "count": 3997,
      "max": [
        0.9963730573654175,
        0.998046875
      ],
      "min": [
        0.0019531199941411614,
        0.0019531199941411614
      ],
      "type": "VEC2"
    },
    {
      "bufferView": 1,
      "byteOffset": 492440,
      "componentType": 5126,
      "count": 3997,
      "max": [
        0.9963730573654175,
        0.998046875
      ],
      "min": [
        0.0019531199941411614,
        0.0019531199941411614
      ],
      "type": "VEC2"
    },
    {
      "bufferView": 1,
      "byteOffset": 524416,
      "componentType": 5126,
      "count": 3997,
      "max": [
        0.9963730573654175,
        0.998046875
      ],
      "min": [
        0.0019531199941411614,
        0.0019531199941411614
      ],
      "type": "VEC2"
    },
    {
      "bufferView": 1,
      "byteOffset": 556392,
      "componentType": 5126,
      "count": 3997,
      "max": [
        0.9963730573654175,
        0.998046875
      ],
      "min": [
        0.0019531199941411614,
        0.0019531199941411614
      ],
      "type": "VEC2"
    },
    {
      "bufferView": 1,
      "byteOffset": 588368,
      "componentType": 5126,
      "count": 3997,
      "max": [
        0.9963730573654175,
        0.998046875
      ],
      "min": [
        0.0019531199941411614,
        0.0019531199941411614
      ],
      "type": "VEC2"
    },
    {
      "bufferView": 1,
      "byteOffset": 620344,
      "componentType": 5126,
      "count": 3997,
      "max": [
        0.9963730573654175,
        0.998046875
      ],
      "min": [
        0.0019531199941411614,
        0.0019531199941411614
      ],
      "type": "VEC2"
    },
    {
      "bufferView": 0,
      "byteOffset": 71784,
      "componentType": 5125,
      "count": 10521,
      "type": "SCALAR"
    },
    {
      "bufferView": 2,
      "byteOffset": 195696,
      "componentType": 5126,
      "count": 1156,
      "max": [
        0.24983501434326172,
        0.2100275456905365,
        0.16726723313331604
      ],
      "min": [
        -0.2498350292444229,
        -0.22047758102416992,
        0
      ],
      "type": "VEC3"
    },
    {
      "bufferView": 2,
      "byteOffset": 209568,
      "componentType": 5126,
      "count": 1156,
      "max": [
        1,
        1,
        1
      ],
      "min": [
        -1,
        -0.9999862313270569,
        -1
      ],
      "type": "VEC3"
    },
    {
      "bufferView": 3,
      "byteOffset": 130464,
      "componentType": 5126,
      "count": 1156,
      "max": [
        1,
        1,
        1,
        1
      ],
      "min": [
        -1,
        -1,
        -1,
        -1
      ],
      "type": "VEC4"
    },
    {
      "bufferView": 1,
      "byteOffset": 652320,
      "componentType": 5126,
      "count": 1156,
      "max": [
        0.993999183177948,
        0.9977809190750122
      ],
      "min": [
        0.0019531199941411614,
        0.0019531199941411614
      ],
      "type": "VEC2"
    },
    {
      "bufferView": 1,
      "byteOffset": 661568,
      "componentType": 5126,
      "count": 1156,
      "max": [
        0.993999183177948,
        0.9977809190750122
      ],
      "min": [
        0.0019531199941411614,
        0.0019531199941411614
      ],
      "type": "VEC2"
    },
    {
      "bufferView": 1,
      "byteOffset": 670816,
      "componentType": 5126,
      "count": 1156,
      "max": [
        0.993999183177948,
        0.9977809190750122
      ],
      "min": [
        0.0019531199941411614,
        0.0019531199941411614
      ],
      "type": "VEC2"
    },
    {
      "bufferView": 1,
      "byteOffset": 680064,
      "componentType": 5126,
      "count": 1156,
      "max": [
        0.993999183177948,
        0.9977809190750122
      ],
      "min": [
        0.0019531199941411614,
        0.0019531199941411614
      ],
      "type": "VEC2"
    },
    {
      "bufferView": 1,
      "byteOffset": 689312,
      "componentType": 5126,
      "count": 1156,
      "max": [
        0.993999183177948,
        0.9977809190750122
      ],
      "min": [
        0.0019531199941411614,
        0.0019531199941411614
      ],
      "type": "VEC2"
    },
    {
      "bufferView": 1,
      "byteOffset": 698560,
      "componentType": 5126,
      "count": 1156,
      "max": [
        0.993999183177948,
        0.9977809190750122
      ],
      "min": [
        0.0019531199941411614,
        0.0019531199941411614
      ],
      "type": "VEC2"
    },
    {
      "bufferView": 1,
      "byteOffset": 707808,
      "componentType": 5126,
      "count": 1156,
      "max": [
        0.993999183177948,
        0.9977809190750122
      ],
      "min": [
        0.0019531199941411614,
        0.0019531199941411614
      ],
      "type": "VEC2"
    },
    {
      "bufferView": 1,
      "byteOffset": 717056,
      "componentType": 5126,
      "count": 1156,
      "max": [
        0.993999183177948,
        0.9977809190750122
      ],
      "min": [
        0.0019531199941411614,
        0.0019531199941411614
      ],
      "type": "VEC2"
    },
    {
      "bufferView": 1,
      "byteOffset": 726304,
      "componentType": 5126,
      "count": 1156,
      "max": [
        0.993999183177948,
        0.9977809190750122
      ],
      "min": [
        0.0019531199941411614,
        0.0019531199941411614
      ],
      "type": "VEC2"
    },
    {
      "bufferView": 1,
      "byteOffset": 735552,
      "componentType": 5126,
      "count": 1156,
      "max": [
        0.993999183177948,
        0.9977809190750122
      ],
      "min": [
        0.0019531199941411614,
        0.0019531199941411614
      ],
      "type": "VEC2"
    },
    {
      "bufferView": 0,
      "byteOffset": 113868,
      "componentType": 5125,
      "count": 2811,
      "type": "SCALAR"
    }
  ],
  "asset": {
    "extras": {
      "author": "olegolegperepelica (https://sketchfab.com/olegolegperepelica)",
      "license": "CC-BY-4.0 (http://creativecommons.org/licenses/by/4.0/)",
      "source": "https://sketchfab.com/3d-models/abandoned-computer-terminal-game-prop-1c56df74822a45b682899b0bc7dc2355",
      "title": "Abandoned Computer Terminal (Game Prop)"
    },
    "generator": "Sketchfab-17.14.0",
    "version": "2.0"
  },
  "bufferViews": [
    {
      "buffer": 0,
      "byteLength": 125112,
      "name": "floatBufferViews",
      "target": 34963
    },
    {
      "buffer": 0,
      "byteLength": 744800,
      "byteOffset": 125112,
      "byteStride": 8,
      "name": "floatBufferViews",
      "target": 34962
    },
    {
      "buffer": 0,
      "byteLength": 223440,
      "byteOffset": 869912,
      "byteStride": 12,
      "name": "floatBufferViews",
      "target": 34962
    },
    {
      "buffer": 0,
      "byteLength": 148960,
      "byteOffset": 1093352,
      "byteStride": 16,
      "name": "floatBufferViews",
      "target": 34962
    }
  ],
  "buffers": [
    {
      "byteLength": 1242312,
      "uri": "scene.bin"
    }
  ],
  "extensionsUsed": [
    "KHR_materials_specular",
    "EXT_texture_avif"
  ],
  "images": [
    {
      "uri": "textures/M_electronick.002_baseColor.512.avif",
      "mimeType": "image/avif"
    },
    {
      "uri": "textures/M_electronick.002_metallicRoughness.512.avif",
      "mimeType": "image/avif"
    },
    {
      "uri": "textures/M_electronick.002_emissive.512.avif",
      "mimeType": "image/avif"
    },
    {
      "uri": "textures/M_electronick.002_normal.512.avif",
      "mimeType": "image/avif"
    }
  ],
  "materials": [
    {
      "doubleSided": true,
      "emissiveFactor": [
        1,
        1,
        1
      ],
      "emissiveTexture": {
        "index": 2
      },
      "extensions": {
        "KHR_materials_specular": {
          "specularColorFactor": [
            1,
            1,
            1
          ],
          "specularFactor": 0.5104777462178932
        }
      },
      "name": "M_electronick.002",
      "normalTexture": {
        "index": 3
      },
      "occlusionTexture": {
        "index": 1
      },
      "pbrMetallicRoughness": {
        "baseColorTexture": {
          "index": 0
        },
        "metallicRoughnessTexture": {
          "index": 1
        }
      }
    }
  ],
  "meshes": [
    {
      "name": "pack_1_low.001_M_electronick.002_0",
      "primitives": [
        {
          "attributes": {
            "NORMAL": 1,
            "POSITION": 0,
            "TANGENT": 2,
            "TEXCOORD_0": 3,
            "TEXCOORD_1": 4,
            "TEXCOORD_2": 5,
            "TEXCOORD_3": 6,
            "TEXCOORD_4": 7,
            "TEXCOORD_5": 8,
            "TEXCOORD_6": 9,
            "TEXCOORD_7": 10,
            "TEXCOORD_8": 11,
            "TEXCOORD_9": 12
          },
          "indices": 13,
          "material": 0,
          "mode": 4
        }
      ]
    },
    {
      "name": "pack_2_low.001_M_electronick.002_0",
      "primitives": [
        {
          "attributes": {
            "NORMAL": 15,
            "POSITION": 14,
            "TANGENT": 16,
            "TEXCOORD_0": 17,
            "TEXCOORD_1": 18,
            "TEXCOORD_2": 19,
            "TEXCOORD_3": 20,
            "TEXCOORD_4": 21,
            "TEXCOORD_5": 22,
            "TEXCOORD_6": 23,
            "TEXCOORD_7": 24,
            "TEXCOORD_8": 25,
            "TEXCOORD_9": 26
          },
          "indices": 27,
          "material": 0,
          "mode": 4
        }
      ]
    },
    {
      "name": "pack_3_low.001_M_electronick.002_0",
      "primitives": [
        {
          "attributes": {
            "NORMAL": 29,
            "POSITION": 28,
            "TANGENT": 30,
            "TEXCOORD_0": 31,
            "TEXCOORD_1": 32,
            "TEXCOORD_2": 33,
            "TEXCOORD_3": 34,
            "TEXCOORD_4": 35,
            "TEXCOORD_5": 36,
            "TEXCOORD_6": 37,
            "TEXCOORD_7": 38,
            "TEXCOORD_8": 39,
            "TEXCOORD_9": 40
          },
          "indices": 41,
          "material": 0,
          "mode": 4
        }
      ]
    }
  ],
  "nodes": [
    {
      "children": [
        1
      ],
      "matrix": [
        1,
        0,
        0,
        0,
        0,
        2.220446049250313e-16,
        -1,
        0,
        0,
        1,
        2.220446049250313e-16,
        0,
        0,
        0,
        0,
        1
      ],
      "name": "Sketchfab_model"
    },
    {
      "children": [
        2
      ],
      "matrix": [
        0.009999999776482582,
        0,
        0,
        0,
        0,
        0,
        0.009999999776482582,
        0,
        0,
        -0.009999999776482582,
        0,
        0,
        0,
        0,
        0,
        1
      ],
      "name": "PC.fbx"
    },
    {
      "children": [
        3,
        5,
        7
      ],
      "name": "RootNode"
    },
    {
      "children": [
        4
      ],
      "matrix": [
        100,
        0,
        0,
        0,
        0,
        -0.00001331580541386046,
        -99.99999999999912,
        0,
        0,
        99.99999999999912,
        -0.00001331580541386046,
        0,
        -2.0043270587921143,
        0,
        0,
        1
      ],
      "name": "pack_1_low.001"
    },
    {
      "mesh": 0,
      "name": "pack_1_low.001_M_electronick.002_0"
    },
    {
      "children": [
        6
      ],
      "matrix": [
        100,
        0,
        0,
        0,
        0,
        -0.00001331580541386046,
        -99.99999999999912,
        0,
        0,
        99.99999999999912,
        -0.00001331580541386046,
        0,
        0.025134161114692688,
        -1.7799772024154663,
        4.440892098500626e-16,
        1
      ],
      "name": "pack_2_low.001"
    },
    {
      "mesh": 1,
      "name": "pack_2_low.001_M_electronick.002_0"
    },
    {
      "children": [
        8
      ],
      "matrix": [
        100,
        0,
        0,
        0,
        0,
        -0.00001331580541386046,
        -99.99999999999912,
        0,
        0,
        99.99999999999912,
        -0.00001331580541386046,
        0,
        0,
        0,
        0,
        1
      ],
      "name": "pack_3_low.001"
    },
    {
      "mesh": 2,
      "name": "pack_3_low.001_M_electronick.002_0"
    }
  ],
  "samplers": [
    {
      "magFilter": 9729,
      "minFilter": 9987,
      "wrapS": 10497,
      "wrapT": 10497
    }
  ],
  "scene": 0,
  "scenes": [
    {
      "name": "Sketchfab_Scene",
      "nodes": [
        0
      ]
    }
  ],
  "textures": [
    {
      "sampler": 0,
      "source": 0,
      "extensions": {
        "EXT_texture_avif": {
          "source": 0
        }
      }
    },
    {
      "sampler": 0,
      "source": 1,
      "extensions": {
        "EXT_texture_avif": {
          "source": 1
        }
      }
    },
    {
      "sampler": 0,
      "source": 2,
      "extensions": {
        "EXT_texture_avif": {
          "source": 2
        }
      }
    },
    {
      "sampler": 0,
      "source": 3,
      "extensions": {
        "EXT_texture_avif": {
          "source": 3
        }
      }
    }
  ]
}
