{
  "accessors": [
    {
      "bufferView": 2,
      "componentType": 5126,
      "count": 102,
      "max": [
        1.992997646331787,
        1.992997646331787,
        0.18000000715255737
      ],
      "min": [
        -1.992997646331787,
        -1.992997646331787,
        0
      ],
      "type": "VEC3"
    },
    {
      "bufferView": 2,
      "byteOffset": 1224,
      "componentType": 5126,
      "count": 102,
      "max": [
        1,
        1,
        1
      ],
      "min": [
        -1,
        -1,
        0
      ],
      "type": "VEC3"
    },
    {
      "bufferView": 3,
      "componentType": 5126,
      "count": 102,
      "max": [
        0,
        0,
        1,
        1
      ],
      "min": [
        -0.707108199596405,
        -0.707108199596405,
        -0.0000010900743063757545,
        1
      ],
      "type": "VEC4"
    },
    {
      "bufferView": 1,
      "componentType": 5126,
      "count": 102,
      "max": [
        0.9876399636268616,
        0.34886324405670166
      ],
      "min": [
        0.855104386806488,
        0.2089339792728424
      ],
      "type": "VEC2"
    },
    {
      "bufferView": 0,
      "componentType": 5125,
      "count": 180,
      "type": "SCALAR"
    },
    {
      "bufferView": 2,
      "byteOffset": 2448,
      "componentType": 5126,
      "count": 858,
      "max": [
        32.56437683105469,
        32.40732955932617,
        166.89891052246094
      ],
      "min": [
        -32.55511474609375,
        -32.497798919677734,
        1.4632720947265625
      ],
      "type": "VEC3"
    },
    {
      "bufferView": 2,
      "byteOffset": 12744,
      "componentType": 5126,
      "count": 858,
      "max": [
        0.9999507069587708,
        0.9966017603874207,
        1
      ],
      "min": [
        -0.999950647354126,
        -0.9966021776199341,
        -1
      ],
      "type": "VEC3"
    },
    {
      "bufferView": 3,
      "byteOffset": 1632,
      "componentType": 5126,
      "count": 858,
      "max": [
        0.9992800354957581,
        0.9999580383300781,
        0.9962158799171448,
        1
      ],
      "min": [
        -0.9971168041229248,
        -0.9999507069587708,
        -0.9962161183357239,
        1
      ],
      "type": "VEC4"
    },
    {
      "bufferView": 1,
      "byteOffset": 816,
      "componentType": 5126,
      "count": 858,
      "max": [
        0.9183927774429321,
        0.9972366690635681
      ],
      "min": [
        0.00748585257679224,
        0.001953125
      ],
      "type": "VEC2"
    },
    {
      "bufferView": 0,
      "byteOffset": 720,
      "componentType": 5125,
      "count": 4284,
      "type": "SCALAR"
    },
    {
      "bufferView": 2,
      "byteOffset": 23040,
      "componentType": 5126,
      "count": 281,
      "max": [
        8.267936706542969,
        13.069836616516113,
        0.09069925546646118
      ],
      "min": [
        -8.267936706542969,
        -12.178008079528809,
        -0.7574481964111328
      ],
      "type": "VEC3"
    },
    {
      "bufferView": 2,
      "byteOffset": 26412,
      "componentType": 5126,
      "count": 281,
      "max": [
        0.9999967217445374,
        1,
        1
      ],
      "min": [
        -0.9999967217445374,
        -0.9872644543647766,
        -0.015028856694698334
      ],
      "type": "VEC3"
    },
    {
      "bufferView": 3,
      "byteOffset": 15360,
      "componentType": 5126,
      "count": 281,
      "max": [
        0.2149069905281067,
        0.4885115325450897,
        0.9999840259552002,
        1
      ],
      "min": [
        -1,
        -0.4885115325450897,
        -0.9999840259552002,
        1
      ],
      "type": "VEC4"
    },
    {
      "bufferView": 1,
      "byteOffset": 7680,
      "componentType": 5126,
      "count": 281,
      "max": [
        0.9891606569290161,
        0.6701638698577881
      ],
      "min": [
        0.8556205630302429,
        0.004560351371765137
      ],
      "type": "VEC2"
    },
    {
      "bufferView": 0,
      "byteOffset": 17856,
      "componentType": 5125,
      "count": 1278,
      "type": "SCALAR"
    }
  ],
  "asset": {
    "extras": {
      "author": "Alex_Bond (https://sketchfab.com/alexandr.bondarevskyi)",
      "license": "CC-BY-4.0 (http://creativecommons.org/licenses/by/4.0/)",
      "source": "https://sketchfab.com/3d-models/non-stop-stalker-2-7e834f02d2ef4ec7a8f92a35b0a5650b",
      "title": "Non Stop S.T.A.L.K.E.R. 2"
    },
    "generator": "Sketchfab-16.74.0",
    "version": "2.0"
  },
  "bufferViews": [
    {
      "buffer": 0,
      "byteLength": 22968,
      "name": "floatBufferViews",
      "target": 34963
    },
    {
      "buffer": 0,
      "byteLength": 9928,
      "byteOffset": 22968,
      "byteStride": 8,
      "name": "floatBufferViews",
      "target": 34962
    },
    {
      "buffer": 0,
      "byteLength": 29784,
      "byteOffset": 32896,
      "byteStride": 12,
      "name": "floatBufferViews",
      "target": 34962
    },
    {
      "buffer": 0,
      "byteLength": 19856,
      "byteOffset": 62680,
      "byteStride": 16,
      "name": "floatBufferViews",
      "target": 34962
    }
  ],
  "buffers": [
    {
      "byteLength": 82536,
      "uri": "scene.bin"
    }
  ],
  "images": [
    {
      "uri": "textures/Scene_-_Root_baseColor.1k.avif",
      "mimeType": "image/avif"
    },
    {
      "uri": "textures/Scene_-_Root_metallicRoughness.1k.avif",
      "mimeType": "image/avif"
    },
    {
      "uri": "textures/Scene_-_Root_normal.1k.avif",
      "mimeType": "image/avif"
    }
  ],
  "materials": [
    {
      "doubleSided": true,
      "name": "Scene_-_Root",
      "normalTexture": {
        "index": 2
      },
      "occlusionTexture": {
        "index": 1
      },
      "pbrMetallicRoughness": {
        "baseColorTexture": {
          "index": 0
        },
        "metallicRoughnessTexture": {
          "index": 1
        }
      }
    }
  ],
  "meshes": [
    {
      "name": "Can_3_LP__0",
      "primitives": [
        {
          "attributes": {
            "NORMAL": 1,
            "POSITION": 0,
            "TANGENT": 2,
            "TEXCOORD_0": 3
          },
          "indices": 4,
          "material": 0,
          "mode": 4
        }
      ]
    },
    {
      "name": "Can_1_LP__0",
      "primitives": [
        {
          "attributes": {
            "NORMAL": 6,
            "POSITION": 5,
            "TANGENT": 7,
            "TEXCOORD_0": 8
          },
          "indices": 9,
          "material": 0,
          "mode": 4
        }
      ]
    },
    {
      "name": "Can_2_LP__0",
      "primitives": [
        {
          "attributes": {
            "NORMAL": 11,
            "POSITION": 10,
            "TANGENT": 12,
            "TEXCOORD_0": 13
          },
          "indices": 14,
          "material": 0,
          "mode": 4
        }
      ]
    }
  ],
  "nodes": [
    {
      "children": [
        1
      ],
      "matrix": [
        1,
        0,
        0,
        0,
        0,
        0.11112973839044593,
        -0.9938058853149414,
        0,
        0,
        0.9938058853149414,
        0.11112973839044593,
        0,
        0,
        0,
        0,
        1
      ],
      "name": "Sketchfab_model"
    },
    {
      "children": [
        2
      ],
      "matrix": [
        0.0010000000474974513,
        0,
        0,
        0,
        0,
        0,
        0.0010000000474974513,
        0,
        0,
        -0.0010000000474974513,
        0,
        0,
        0,
        0,
        0,
        1
      ],
      "name": "NonStop_LP.fbx"
    },
    {
      "children": [
        3,
        6,
        8
      ],
      "name": "RootNode"
    },
    {
      "children": [
        4
      ],
      "matrix": [
        1,
        0,
        0,
        0,
        0,
        2.220446049250313e-16,
        -1,
        0,
        0,
        1,
        2.220446049250313e-16,
        0,
        0,
        0,
        0,
        1
      ],
      "name": "Can_3_LP"
    },
    {
      "children": [
        5
      ],
      "matrix": [
        1,
        0,
        0,
        0,
        0,
        1,
        0,
        0,
        0,
        0,
        1,
        0,
        0,
        0.3054475784301758,
        164.30726623535156,
        1
      ],
      "name": "Object_4"
    },
    {
      "mesh": 0,
      "name": "Can_3_LP__0"
    },
    {
      "children": [
        7
      ],
      "matrix": [
        1,
        0,
        0,
        0,
        0,
        2.220446049250313e-16,
        -1,
        0,
        0,
        1,
        2.220446049250313e-16,
        0,
        0,
        0,
        0,
        1
      ],
      "name": "Can_1_LP"
    },
    {
      "mesh": 1,
      "name": "Can_1_LP__0"
    },
    {
      "children": [
        9
      ],
      "matrix": [
        1,
        0,
        0,
        0,
        0,
        2.220446049250313e-16,
        -1,
        0,
        0,
        1,
        2.220446049250313e-16,
        0,
        0,
        0,
        0,
        1
      ],
      "name": "Can_2_LP"
    },
    {
      "children": [
        10
      ],
      "matrix": [
        1,
        0,
        0,
        0,
        0,
        1,
        0,
        0,
        0,
        0,
        1,
        0,
        0,
        3.8601326942443848,
        164.6351318359375,
        1
      ],
      "name": "Object_9"
    },
    {
      "mesh": 2,
      "name": "Can_2_LP__0"
    }
  ],
  "samplers": [
    {
      "magFilter": 9729,
      "minFilter": 9987,
      "wrapS": 10497,
      "wrapT": 10497
    }
  ],
  "scene": 0,
  "scenes": [
    {
      "name": "Sketchfab_Scene",
      "nodes": [
        0
      ]
    }
  ],
  "textures": [
    {
      "sampler": 0,
      "source": 0,
      "extensions": {
        "EXT_texture_avif": {
          "source": 0
        }
      }
    },
    {
      "sampler": 0,
      "source": 1,
      "extensions": {
        "EXT_texture_avif": {
          "source": 1
        }
      }
    },
    {
      "sampler": 0,
      "source": 2,
      "extensions": {
        "EXT_texture_avif": {
          "source": 2
        }
      }
    }
  ],
  "extensionsUsed": [
    "EXT_texture_avif"
  ]
}
